<svg width="422" height="288" viewBox="0 0 422 288" fill="none" xmlns="http://www.w3.org/2000/svg">
<path fill-rule="evenodd" clip-rule="evenodd" d="M354 149H63V144H354V149Z" fill="#EDC600"/>
<path d="M206 89L218.039 126.051H257L225.48 148.949L237.52 186L206 163.101L174.48 186L186.52 148.949L155 126.051H193.961L206 89Z" fill="white"/>
<path fill-rule="evenodd" clip-rule="evenodd" d="M218.039 126.051L206 89L193.961 126.051H155L186.52 148.949L174.48 186L206 163.101L237.52 186L225.48 148.949L257 126.051H218.039ZM250.398 128.196H216.481L206 95.9408L195.519 128.196H161.602L189.041 148.13L178.56 180.385L206 160.45L233.44 180.385L222.959 148.13L250.398 128.196Z" fill="#EDC600"/>
<path d="M255.815 126.551L225.247 148.527L205.945 142.639L255.815 126.551Z" fill="#EDC600"/>
<path d="M237.582 186.071L205.944 163.013L205.944 142.636L237.582 186.071Z" fill="#EDC600"/>
<path d="M174.838 185.538L186.636 148.949L205.943 142.639L174.838 185.538Z" fill="#EDC600"/>
<path d="M156 127L194.172 127L206 143L156 127Z" fill="#EDC600"/>
<path d="M205.947 89.549L217.746 126.012L205.944 142.636L205.947 89.549Z" fill="#EDC600"/>
<path fill-rule="evenodd" clip-rule="evenodd" d="M291 42H126V37H291V42Z" fill="#EDC600"/>
<path fill-rule="evenodd" clip-rule="evenodd" d="M266 277H151V272H266V277Z" fill="#EDC600"/>
<path fill-rule="evenodd" clip-rule="evenodd" d="M34.0019 161.13L127.242 25.0007L131.367 27.8262L38.1271 163.956L34.0019 161.13Z" fill="#EDC600"/>
<path fill-rule="evenodd" clip-rule="evenodd" d="M384.083 153.002L290.962 31.9994L287 35.0488L380.121 156.051L384.083 153.002Z" fill="#EDC600"/>
<path fill-rule="evenodd" clip-rule="evenodd" d="M29.0021 142.825L110.172 261.331L114.297 258.506L33.1273 139.999L29.0021 142.825Z" fill="#EDC600"/>
<path fill-rule="evenodd" clip-rule="evenodd" d="M380.295 145.825L299.125 264.331L295 261.506L376.17 142.999L380.295 145.825Z" fill="#EDC600"/>
<path d="M126 0L138.039 37.0507H177L145.48 59.9493L157.52 97L126 74.1014L94.4803 97L106.52 59.9493L75 37.0507H113.961L126 0Z" fill="white"/>
<path fill-rule="evenodd" clip-rule="evenodd" d="M138.039 37.0507L126 0L113.961 37.0507H75L106.52 59.9493L94.4803 97L126 74.1014L157.52 97L145.48 59.9493L177 37.0507H138.039ZM170.398 39.1955H136.481L126 6.94076L115.519 39.1955H81.6016L109.041 59.13L98.5603 91.3848L126 71.4503L153.44 91.3848L142.959 59.13L170.398 39.1955Z" fill="#EDC600"/>
<path d="M175.815 37.5506L145.247 59.5267L125.945 53.6394L175.815 37.5506Z" fill="#EDC600"/>
<path d="M157.582 97.0714L125.944 74.0129L125.944 53.6355L157.582 97.0714Z" fill="#EDC600"/>
<path d="M94.8382 96.5381L106.636 59.9488L125.943 53.6389L94.8382 96.5381Z" fill="#EDC600"/>
<path d="M76 38L114.172 38L126 54L76 38Z" fill="#EDC600"/>
<path d="M125.947 0.549038L137.746 37.012L125.944 53.6362L125.947 0.549038Z" fill="#EDC600"/>
<path d="M126 186L138.039 223.051H177L145.48 245.949L157.52 283L126 260.101L94.4803 283L106.52 245.949L75 223.051H113.961L126 186Z" fill="white"/>
<path fill-rule="evenodd" clip-rule="evenodd" d="M138.039 223.051L126 186L113.961 223.051H75L106.52 245.949L94.4803 283L126 260.101L157.52 283L145.48 245.949L177 223.051H138.039ZM170.398 225.196H136.481L126 192.941L115.519 225.196H81.6016L109.041 245.13L98.5603 277.385L126 257.45L153.44 277.385L142.959 245.13L170.398 225.196Z" fill="#EDC600"/>
<path d="M175.815 223.551L145.247 245.527L125.945 239.639L175.815 223.551Z" fill="#EDC600"/>
<path d="M157.582 283.071L125.944 260.013L125.944 239.636L157.582 283.071Z" fill="#EDC600"/>
<path d="M94.8382 282.538L106.636 245.949L125.943 239.639L94.8382 282.538Z" fill="#EDC600"/>
<path d="M76 224L114.172 224L126 240L76 224Z" fill="#EDC600"/>
<path d="M125.947 186.549L137.746 223.012L125.944 239.636L125.947 186.549Z" fill="#EDC600"/>
<path d="M51 89L63.0395 126.051H102L70.4803 148.949L82.5197 186L51 163.101L19.4803 186L31.5197 148.949L0 126.051H38.9605L51 89Z" fill="white"/>
<path fill-rule="evenodd" clip-rule="evenodd" d="M63.0395 126.051L51 89L38.9605 126.051H0L31.5197 148.949L19.4803 186L51 163.101L82.5197 186L70.4803 148.949L102 126.051H63.0395ZM95.3984 128.196H61.481L51 95.9408L40.519 128.196H6.60158L34.0413 148.13L23.5603 180.385L51 160.45L78.4397 180.385L67.9587 148.13L95.3984 128.196Z" fill="#EDC600"/>
<path d="M100.815 126.551L70.2466 148.527L50.9451 142.639L100.815 126.551Z" fill="#EDC600"/>
<path d="M82.5817 186.071L50.9442 163.013L50.9442 142.636L82.5817 186.071Z" fill="#EDC600"/>
<path d="M19.8382 185.538L31.6356 148.949L50.9433 142.639L19.8382 185.538Z" fill="#EDC600"/>
<path d="M0.999999 127L39.172 127L51 143L0.999999 127Z" fill="#EDC600"/>
<path d="M50.9469 89.549L62.7457 126.012L50.9436 142.636L50.9469 89.549Z" fill="#EDC600"/>
<path d="M291 0L303.039 37.0507H342L310.48 59.9493L322.52 97L291 74.1014L259.48 97L271.52 59.9493L240 37.0507H278.961L291 0Z" fill="white"/>
<path fill-rule="evenodd" clip-rule="evenodd" d="M303.039 37.0507L291 0L278.961 37.0507H240L271.52 59.9493L259.48 97L291 74.1014L322.52 97L310.48 59.9493L342 37.0507H303.039ZM335.398 39.1955H301.481L291 6.94076L280.519 39.1955H246.602L274.041 59.13L263.56 91.3848L291 71.4503L318.44 91.3848L307.959 59.13L335.398 39.1955Z" fill="#EDC600"/>
<path d="M340.815 37.5506L310.247 59.5267L290.945 53.6394L340.815 37.5506Z" fill="#EDC600"/>
<path d="M322.582 97.0714L290.944 74.0129L290.944 53.6355L322.582 97.0714Z" fill="#EDC600"/>
<path d="M259.838 96.5381L271.636 59.9488L290.943 53.6389L259.838 96.5381Z" fill="#EDC600"/>
<path d="M241 38L279.172 38L291 54L241 38Z" fill="#EDC600"/>
<path d="M290.947 0.549038L302.746 37.012L290.944 53.6362L290.947 0.549038Z" fill="#EDC600"/>
<path d="M291 186L303.039 223.051H342L310.48 245.949L322.52 283L291 260.101L259.48 283L271.52 245.949L240 223.051H278.961L291 186Z" fill="white"/>
<path fill-rule="evenodd" clip-rule="evenodd" d="M303.039 223.051L291 186L278.961 223.051H240L271.52 245.949L259.48 283L291 260.101L322.52 283L310.48 245.949L342 223.051H303.039ZM335.398 225.196H301.481L291 192.941L280.519 225.196H246.602L274.041 245.13L263.56 277.385L291 257.45L318.44 277.385L307.959 245.13L335.398 225.196Z" fill="#EDC600"/>
<path d="M340.815 223.551L310.247 245.527L290.945 239.639L340.815 223.551Z" fill="#EDC600"/>
<path d="M322.582 283.071L290.944 260.013L290.944 239.636L322.582 283.071Z" fill="#EDC600"/>
<path d="M259.838 282.538L271.636 245.949L290.943 239.639L259.838 282.538Z" fill="#EDC600"/>
<path d="M241 224L279.172 224L291 240L241 224Z" fill="#EDC600"/>
<path d="M290.947 186.549L302.746 223.012L290.944 239.636L290.947 186.549Z" fill="#EDC600"/>
<path d="M371 89L383.039 126.051H422L390.48 148.949L402.52 186L371 163.101L339.48 186L351.52 148.949L320 126.051H358.961L371 89Z" fill="white"/>
<path fill-rule="evenodd" clip-rule="evenodd" d="M383.039 126.051L371 89L358.961 126.051H320L351.52 148.949L339.48 186L371 163.101L402.52 186L390.48 148.949L422 126.051H383.039ZM415.398 128.196H381.481L371 95.9408L360.519 128.196H326.602L354.041 148.13L343.56 180.385L371 160.45L398.44 180.385L387.959 148.13L415.398 128.196Z" fill="#EDC600"/>
<path d="M420.815 126.551L390.247 148.527L370.945 142.639L420.815 126.551Z" fill="#EDC600"/>
<path d="M402.582 186.071L370.944 163.013L370.944 142.636L402.582 186.071Z" fill="#EDC600"/>
<path d="M339.838 185.538L351.636 148.949L370.943 142.639L339.838 185.538Z" fill="#EDC600"/>
<path d="M321 127L359.172 127L371 143L321 127Z" fill="#EDC600"/>
<path d="M370.947 89.549L382.746 126.012L370.944 142.636L370.947 89.549Z" fill="#EDC600"/>
<path d="M137.167 93.3333C132.278 97.6667 127.889 101.833 124 105.833C120.111 109.722 116.167 114.056 112.167 118.833C108.167 123.5 103.889 128.944 99.3333 135.167C94.7778 141.278 89.5 148.667 83.5 157.333C79.1667 163.556 75.4444 168.778 72.3333 173C69.3333 177.111 66.6111 180.667 64.1667 183.667C61.7222 186.556 59.5 189.056 57.5 191.167C55.5 193.278 53.3333 195.333 51 197.333C47.2222 200.667 43.1111 203.278 38.6667 205.167C34.3333 206.944 29.9444 207.833 25.5 207.833C19.3889 207.833 14.4444 206.111 10.6667 202.667C6.88889 199.222 5 194.722 5 189.167C5 186.833 5.33333 184.611 6 182.5C6.77778 180.389 7.77778 178.556 9 177C10.2222 175.333 11.6111 174.056 13.1667 173.167C14.8333 172.278 16.5556 171.833 18.3333 171.833C20.7778 171.833 22.8333 172.667 24.5 174.333C26.1667 176 27 178 27 180.333C27 182.333 26.2778 184.222 24.8333 186C23.3889 187.667 21.6667 188.722 19.6667 189.167L14.3333 190.5C11.1111 191.167 9.5 193.056 9.5 196.167C9.5 199.056 11.0556 201.444 14.1667 203.333C17.2778 205.222 21.1667 206.167 25.8333 206.167C29.8333 206.167 33.8889 205.278 38 203.5C42.2222 201.722 46.0556 199.222 49.5 196C51.2778 194.222 53.1111 192.278 55 190.167C57 188.056 59.1667 185.5 61.5 182.5C63.9444 179.5 66.7778 175.889 70 171.667C73.2222 167.333 77.1111 162.111 81.6667 156C86.7778 149 90.7222 143.667 93.5 140C96.3889 136.222 98.1111 133.944 98.6667 133.167C102 128.722 105.278 124.556 108.5 120.667C111.833 116.778 115.111 113.056 118.333 109.5C121.889 105.611 125.333 102.056 128.667 98.8333C132 95.6111 134.778 93.1111 137 91.3333C137.889 90.5556 138.722 90.1667 139.5 90.1667C140.611 90.1667 141.167 90.7222 141.167 91.8333C141.167 92.0555 141.056 92.3889 140.833 92.8333C140.611 93.2778 140.389 93.7778 140.167 94.3333C138.5 97.3333 136.611 100.889 134.5 105C132.5 109 130.444 113.278 128.333 117.833C126.333 122.278 124.333 126.833 122.333 131.5C120.444 136.167 118.722 140.556 117.167 144.667L104.833 177.333C102.833 182.667 101.167 187.222 99.8333 191C98.5 194.778 97.5556 197.889 97 200.333C96.8889 200.556 96.7778 200.944 96.6667 201.5C96.5556 201.944 96.3889 202.667 96.1667 203.667C97.2778 202.444 98.2222 201.389 99 200.5C99.8889 199.611 100.667 198.722 101.333 197.833C102.111 196.833 102.889 195.722 103.667 194.5C104.556 193.167 105.611 191.556 106.833 189.667L118.333 171.333C122.333 164.889 125.833 159.389 128.833 154.833C131.944 150.167 134.833 146 137.5 142.333C140.167 138.556 142.833 134.944 145.5 131.5C148.278 128.056 151.389 124.333 154.833 120.333C160.056 114.222 164.778 109.056 169 104.833C173.222 100.611 177.444 96.8333 181.667 93.5C184.444 91.1667 186.611 90 188.167 90C189.167 90 189.667 90.5556 189.667 91.6667C189.667 92.2222 189.5 92.8889 189.167 93.6667C188.833 94.3333 188.111 95.4444 187 97C186.333 98 185.556 99.2222 184.667 100.667C183.889 102 182.944 103.611 181.833 105.5C179.5 109.389 177.389 113 175.5 116.333C173.722 119.556 172.167 122.5 170.833 125.167C169.611 127.611 168.056 130.889 166.167 135C164.278 139 162.056 143.833 159.5 149.5C156.833 155.5 154.667 160.389 153 164.167C151.333 167.833 150.111 170.5 149.333 172.167C146 180.056 143.333 186.833 141.333 192.5C139.333 198.056 138.333 201.611 138.333 203.167C138.333 204.944 139.056 205.833 140.5 205.833C141.5 205.833 142.833 205.278 144.5 204.167C146.278 202.944 148.222 201.278 150.333 199.167C152.556 196.944 154.889 194.389 157.333 191.5C159.778 188.5 162.278 185.222 164.833 181.667L166 180.167L167.333 181.167C161.333 189.722 155.833 196.333 150.833 201C145.944 205.667 141.944 208 138.833 208C135.722 208 133.111 206.333 131 203C129 199.667 128 195.5 128 190.5C128 180.167 132.5 167.278 141.5 151.833C150.611 136.389 164.5 117.944 183.167 96.5L187.167 92C177.722 97.8889 167.333 107.5 156 120.833C144.778 134.167 132.667 151.333 119.667 172.333C117.111 176.222 114.889 179.667 113 182.667C111.222 185.667 109.667 188.222 108.333 190.333C105.444 194.667 102.611 198.667 99.8333 202.333C99.1667 203.222 98.4445 204 97.6667 204.667C97 205.333 96.2778 206 95.5 206.667C94.2778 207.444 93.3333 207.833 92.6667 207.833C90.7778 207.833 89.1111 206.389 87.6667 203.5C86.3333 200.5 85.6667 196.889 85.6667 192.667C85.6667 187.667 86.5556 182.111 88.3333 176C90.2222 169.889 92.8333 163.5 96.1667 156.833C99.3889 150.611 103.167 143.889 107.5 136.667C111.833 129.333 116.111 122.611 120.333 116.5C120.889 115.722 122.111 114 124 111.333C126 108.667 128.667 105 132 100.333C132.556 99.5556 133.222 98.6111 134 97.5C134.889 96.2778 135.944 94.8889 137.167 93.3333Z" fill="#133984"/>
<path fill-rule="evenodd" clip-rule="evenodd" d="M136.092 92.0742C136.404 91.8147 136.707 91.5677 137 91.3333C137.889 90.5556 138.722 90.1667 139.5 90.1667C140.611 90.1667 141.167 90.7222 141.167 91.8333C141.167 92.0555 141.056 92.3889 140.833 92.8333C140.611 93.2778 140.389 93.7778 140.167 94.3333C138.5 97.3333 136.611 100.889 134.5 105C132.5 109 130.444 113.278 128.333 117.833C126.333 122.278 124.333 126.833 122.333 131.5C120.444 136.167 118.722 140.556 117.167 144.667L104.833 177.333C102.833 182.667 101.167 187.222 99.8333 191C98.6421 194.375 97.7612 197.218 97.1908 199.529C97.1228 199.805 97.0592 200.073 97 200.333C96.8889 200.556 96.7778 200.944 96.6667 201.5C96.5719 201.879 96.4367 202.46 96.261 203.244C96.26 203.249 96.2589 203.253 96.2579 203.258C96.2286 203.389 96.1982 203.525 96.1667 203.667C96.2469 203.578 96.3262 203.491 96.4046 203.405C96.4357 203.37 96.4666 203.336 96.4973 203.302C96.9831 202.767 97.435 202.265 97.853 201.797C97.868 201.78 97.8829 201.763 97.8979 201.746C98.0566 201.568 98.2103 201.396 98.3591 201.228C98.3611 201.225 98.363 201.223 98.365 201.221C98.4074 201.173 98.4493 201.126 98.4909 201.079C98.5928 200.963 98.6924 200.851 98.7895 200.74C98.861 200.659 98.9311 200.579 99 200.5C99.0062 200.494 99.0124 200.488 99.0185 200.481C99.8997 199.599 100.671 198.716 101.333 197.833C102.111 196.833 102.889 195.722 103.667 194.5C104.556 193.167 105.611 191.556 106.833 189.667L118.333 171.333C122.333 164.889 125.833 159.389 128.833 154.833C131.944 150.167 134.833 146 137.5 142.333C140.167 138.556 142.833 134.944 145.5 131.5C148.278 128.056 151.389 124.333 154.833 120.333C154.913 120.24 154.993 120.146 155.073 120.053C155.074 120.052 155.076 120.05 155.077 120.049C160.202 114.062 164.844 108.99 169 104.833C173.222 100.611 177.444 96.8333 181.667 93.5C183.149 92.2546 184.458 91.3416 185.592 90.7609C185.631 90.7412 185.669 90.7218 185.707 90.7028C185.88 90.6171 186.048 90.5393 186.212 90.4692C186.221 90.4654 186.23 90.4616 186.239 90.4578C186.962 90.1526 187.604 90 188.167 90C189.167 90 189.667 90.5556 189.667 91.6667C189.667 92.2222 189.5 92.8889 189.167 93.6667C188.833 94.3333 188.111 95.4444 187 97C186.333 98 185.556 99.2222 184.667 100.667C183.889 102 182.944 103.611 181.833 105.5C179.5 109.389 177.389 113 175.5 116.333C173.722 119.556 172.167 122.5 170.833 125.167C169.611 127.611 168.056 130.889 166.167 135C164.278 139 162.056 143.833 159.5 149.5C156.833 155.5 154.667 160.389 153 164.167C151.333 167.833 150.111 170.5 149.333 172.167C146 180.056 143.333 186.833 141.333 192.5C139.333 198.056 138.333 201.611 138.333 203.167C138.333 204.807 138.948 205.69 140.177 205.817C140.28 205.828 140.388 205.833 140.5 205.833C141.5 205.833 142.833 205.278 144.5 204.167C146.096 203.07 147.825 201.615 149.69 199.802C149.694 199.797 149.698 199.793 149.703 199.789C149.911 199.586 150.122 199.379 150.333 199.167C152.556 196.944 154.889 194.389 157.333 191.5C159.778 188.5 162.278 185.222 164.833 181.667L166 180.167L167.333 181.167C167.328 181.175 167.322 181.183 167.317 181.191C166.961 181.697 166.608 182.197 166.256 182.689C166.243 182.707 166.23 182.725 166.218 182.743C163.605 186.402 161.089 189.683 158.669 192.589C158.662 192.597 158.656 192.605 158.649 192.613C156.17 195.588 153.793 198.167 151.518 200.352C151.289 200.572 151.061 200.788 150.833 201C148.88 202.864 147.069 204.356 145.4 205.476C145.394 205.48 145.387 205.484 145.381 205.488C143.591 206.687 141.964 207.456 140.5 207.797C140.449 207.809 140.398 207.82 140.347 207.831C139.821 207.944 139.317 208 138.833 208C135.722 208 133.111 206.333 131 203C129 199.667 128 195.5 128 190.5C128 180.167 132.5 167.278 141.5 151.833C150.343 136.843 163.688 119.026 181.533 98.3829C182.074 97.7579 182.618 97.1302 183.167 96.5L187.167 92C185.748 92.8845 184.308 93.8529 182.847 94.9054C182.832 94.9162 182.817 94.9271 182.802 94.938C182.548 95.1214 182.293 95.3074 182.037 95.4959C182.033 95.4991 182.028 95.5023 182.024 95.5054C181.403 95.9634 180.779 96.4363 180.151 96.9243C176.864 99.4766 173.473 102.439 169.978 105.812C165.49 110.143 160.831 115.15 156 120.833C155.919 120.93 155.838 121.026 155.757 121.123C155.756 121.124 155.755 121.125 155.754 121.126C152.807 124.638 149.799 128.413 146.73 132.452C146.724 132.461 146.718 132.469 146.712 132.477C144.123 135.884 141.491 139.479 138.815 143.262C138.811 143.268 138.807 143.274 138.802 143.28C136.002 147.239 133.155 151.403 130.26 155.773C130.258 155.775 130.256 155.778 130.254 155.781C126.818 160.967 123.314 166.443 119.744 172.209C119.742 172.211 119.741 172.213 119.74 172.215C119.715 172.255 119.691 172.294 119.667 172.333C117.111 176.222 114.889 179.667 113 182.667C111.222 185.667 109.667 188.222 108.333 190.333C108.29 190.398 108.247 190.462 108.204 190.527C108.2 190.533 108.196 190.539 108.192 190.546C107.099 192.181 106.015 193.769 104.938 195.309C104.932 195.318 104.926 195.327 104.92 195.335C104.113 196.49 103.31 197.617 102.512 198.718C102.507 198.725 102.502 198.731 102.497 198.738C101.773 199.737 101.052 200.714 100.335 201.668C100.311 201.7 100.287 201.732 100.263 201.763C100.12 201.954 99.9766 202.144 99.8333 202.333C99.1667 203.222 98.4445 204 97.6667 204.667C97.6034 204.73 97.5397 204.793 97.4754 204.856C96.8625 205.46 96.204 206.063 95.5 206.667C94.5777 207.254 93.8135 207.619 93.2076 207.763C93.0105 207.81 92.8302 207.833 92.6667 207.833C90.7778 207.833 89.1111 206.389 87.6667 203.5C86.3333 200.5 85.6667 196.889 85.6667 192.667C85.6667 187.667 86.5556 182.111 88.3333 176C90.2222 169.889 92.8333 163.5 96.1667 156.833C99.3889 150.611 103.167 143.889 107.5 136.667C111.833 129.333 116.111 122.611 120.333 116.5C120.889 115.722 122.111 114 124 111.333C125.803 108.929 128.147 105.713 131.034 101.684C131.349 101.244 131.671 100.793 132 100.333C132.556 99.5556 133.222 98.6111 134 97.5C134.626 96.6386 135.336 95.6945 136.128 94.6675C136.46 94.2373 136.806 93.7926 137.167 93.3333C135.805 94.5405 134.482 95.7348 133.197 96.9161C133.193 96.9203 133.188 96.9244 133.184 96.9286C132.305 97.7368 131.445 98.5389 130.602 99.335C130.349 99.575 130.096 99.8143 129.846 100.053C129.736 100.158 129.626 100.263 129.517 100.368C127.578 102.223 125.739 104.045 124 105.833C122.499 107.334 120.991 108.901 119.474 110.533C119.472 110.535 119.471 110.537 119.469 110.538C117.056 113.136 114.622 115.901 112.167 118.833C111.373 119.76 110.568 120.717 109.752 121.704C109.746 121.711 109.74 121.718 109.735 121.725C106.667 125.439 103.445 129.587 100.068 134.167C100.06 134.178 100.052 134.189 100.044 134.2C99.8077 134.52 99.5709 134.842 99.3333 135.167C97.9448 137.029 96.4891 139.011 94.9664 141.111C94.9648 141.113 94.9631 141.115 94.9615 141.118C93.4638 143.183 91.9012 145.364 90.2737 147.659C88.1286 150.684 85.8706 153.909 83.5 157.333C79.1667 163.556 75.4444 168.778 72.3333 173C69.3333 177.111 66.6111 180.667 64.1667 183.667C61.7222 186.556 59.5 189.056 57.5 191.167C55.5 193.278 53.3333 195.333 51 197.333C50.9861 197.346 50.9723 197.358 50.9584 197.37C50.9427 197.384 50.927 197.398 50.9114 197.411C50.8947 197.426 50.878 197.441 50.8613 197.455C47.1347 200.719 43.085 203.283 38.7123 205.147C38.707 205.15 38.7017 205.152 38.6964 205.154C38.6865 205.158 38.6766 205.162 38.6667 205.167C34.4417 206.9 30.1639 207.788 25.8333 207.832C25.7223 207.833 25.6111 207.833 25.5 207.833C20.738 207.833 16.6844 206.788 13.3393 204.696C12.3915 204.104 11.5007 203.427 10.6667 202.667C9.81722 201.892 9.06326 201.064 8.40481 200.183C6.13493 197.145 5 193.473 5 189.167C5 186.833 5.33333 184.611 6 182.5C6.77778 180.389 7.77778 178.556 9 177C10.2222 175.333 11.6111 174.056 13.1667 173.167C14.8333 172.278 16.5556 171.833 18.3333 171.833C20.7778 171.833 22.8333 172.667 24.5 174.333C26.1667 176 27 178 27 180.333C27 182.333 26.2778 184.222 24.8333 186C23.3889 187.667 21.6667 188.722 19.6667 189.167L14.3333 190.5C11.1111 191.167 9.5 193.056 9.5 196.167C9.5 197.228 9.70983 198.221 10.1295 199.147C10.5047 199.975 11.0475 200.749 11.7582 201.47C12.4169 202.137 13.2197 202.758 14.1667 203.333C17.2034 205.177 20.9812 206.121 25.5 206.165C25.6107 206.166 25.7218 206.167 25.8333 206.167C29.8219 206.167 33.8657 205.283 37.9648 203.515C37.9717 203.512 37.9786 203.509 37.9855 203.506C37.9903 203.504 37.9952 203.502 38 203.5C42.2222 201.722 46.0556 199.222 49.5 196C49.5297 195.97 49.5593 195.941 49.5891 195.911C51.339 194.157 53.1426 192.243 55 190.167C57 188.056 59.1667 185.5 61.5 182.5C63.9444 179.5 66.7778 175.889 70 171.667C73.2222 167.333 77.1111 162.111 81.6667 156C84.3071 152.384 86.6362 149.212 88.6539 146.486C90.5418 143.934 92.1572 141.772 93.5 140C95.5942 137.261 97.0753 135.311 97.9434 134.149C97.9463 134.145 97.9493 134.141 97.9522 134.137C98.2771 133.702 98.5152 133.379 98.6667 133.167C102 128.722 105.278 124.556 108.5 120.667C109.322 119.708 110.141 118.759 110.956 117.82C110.96 117.815 110.964 117.811 110.968 117.806C113.455 114.943 115.91 112.174 118.333 109.5C119.853 107.838 121.352 106.237 122.831 104.697C122.836 104.691 122.842 104.686 122.847 104.68C124.823 102.623 126.763 100.674 128.667 98.8333C130.921 96.6546 132.92 94.806 134.666 93.2876C135.07 92.9367 135.46 92.6035 135.836 92.2879C135.914 92.2225 135.991 92.1579 136.068 92.094C136.076 92.0874 136.084 92.0808 136.092 92.0742ZM127.277 97.3954C130.615 94.1685 133.432 91.6292 135.718 89.7979C136.782 88.8754 138.056 88.1667 139.5 88.1667C140.364 88.1667 141.379 88.384 142.164 89.1691C142.949 89.9543 143.167 90.9695 143.167 91.8333C143.167 92.5652 142.852 93.2677 142.622 93.7278C142.429 94.1138 142.229 94.562 142.024 95.0761L141.977 95.1938L141.915 95.3046C140.263 98.278 138.386 101.81 136.284 105.904C134.297 109.879 132.253 114.132 130.153 118.664C128.162 123.088 126.171 127.623 124.18 132.269C122.299 136.917 120.585 141.285 119.037 145.374L106.706 178.036C106.706 178.036 106.705 178.037 106.705 178.038C104.708 183.363 103.047 187.905 101.719 191.666C101.183 193.185 100.714 194.587 100.309 195.872C100.862 195.122 101.419 194.307 101.979 193.426L101.991 193.408L102.003 193.391C102.883 192.07 103.931 190.471 105.147 188.592L116.634 170.279C116.635 170.277 116.636 170.276 116.636 170.275C120.641 163.822 124.151 158.307 127.163 153.733L127.169 153.724C130.289 149.045 133.191 144.859 135.874 141.168C138.554 137.372 141.236 133.741 143.919 130.276L143.931 130.26L143.943 130.244C146.736 126.781 149.86 123.044 153.315 119.032C158.559 112.894 163.317 107.688 167.586 103.419C171.85 99.1554 176.122 95.3309 180.404 91.9488C181.844 90.7408 183.188 89.7811 184.427 89.1141C185.649 88.4561 186.919 88 188.167 88C189.033 88 190.033 88.2502 190.778 89.0787C191.488 89.8672 191.667 90.8518 191.667 91.6667C191.667 92.5968 191.395 93.5452 191.005 94.4545L190.982 94.5085L190.956 94.5611C190.546 95.3807 189.743 96.5992 188.647 98.1358C188.004 99.1 187.25 100.285 186.382 101.695C185.605 103.027 184.663 104.633 183.557 106.514L183.553 106.522L183.548 106.529C181.224 110.402 179.124 113.996 177.246 117.309C175.48 120.509 173.94 123.426 172.622 126.061C171.414 128.477 169.869 131.733 167.984 135.835L167.98 135.845L167.975 135.854C166.093 139.839 163.877 144.66 161.325 150.319C158.66 156.315 156.495 161.2 154.83 164.974L154.825 164.984L154.821 164.994C153.165 168.637 151.944 171.301 151.161 172.979C147.844 180.83 145.199 187.557 143.219 193.166L143.215 193.177C142.223 195.933 141.49 198.162 141.009 199.875C140.509 201.651 140.333 202.692 140.333 203.167C140.333 203.482 140.366 203.688 140.399 203.811C140.401 203.817 140.403 203.824 140.405 203.83C140.431 203.832 140.462 203.833 140.5 203.833C140.871 203.833 141.776 203.577 143.378 202.511C145.023 201.379 146.869 199.803 148.919 197.752C151.092 195.58 153.383 193.071 155.795 190.222C158.207 187.261 160.678 184.021 163.209 180.499L163.231 180.469L165.628 177.388L170.083 180.729L168.971 182.315C162.932 190.926 157.344 197.657 152.207 202.454C149.699 204.847 147.353 206.706 145.174 207.978C143.007 209.242 140.875 210 138.833 210C134.851 210 131.676 207.806 129.31 204.07L129.297 204.05L129.285 204.029C127.052 200.308 126 195.761 126 190.5C126 179.64 130.707 166.382 139.772 150.826L139.777 150.817C147.23 138.184 157.819 123.611 171.519 107.105C167.047 111.408 162.384 116.412 157.528 122.123C146.389 135.359 134.335 152.439 121.367 173.386L121.353 173.409L121.338 173.432C118.794 177.303 116.584 180.728 114.707 183.709C112.929 186.71 111.367 189.275 110.024 191.401L110.011 191.422L109.997 191.443C107.09 195.804 104.235 199.836 101.431 203.537C100.701 204.509 99.9009 205.378 99.0277 206.134C98.3369 206.822 97.5945 207.506 96.8016 208.185L96.6937 208.278L96.5738 208.354C95.5338 209.016 94.4065 209.603 93.3124 209.78L92.5805 210.585L92.7477 209.832C92.7206 209.833 92.6936 209.833 92.6667 209.833C89.5844 209.833 87.4078 207.454 85.8778 204.394L85.8575 204.354L85.839 204.312C84.3645 200.995 83.6667 197.092 83.6667 192.667C83.6667 187.434 84.596 181.687 86.4129 175.441L86.4176 175.425L86.4225 175.409C88.3485 169.178 91.0034 162.688 94.3778 155.939L94.3842 155.926L94.3907 155.914C97.6346 149.649 101.432 142.892 105.782 135.643C110.134 128.277 114.436 121.517 118.688 115.363L118.697 115.35L118.706 115.338C119.203 114.642 120.238 113.183 121.814 110.959C119.139 113.799 116.434 116.851 113.7 120.117L113.693 120.126L113.685 120.135C109.726 124.755 105.48 130.157 100.947 136.348L100.942 136.355L100.937 136.362C96.3994 142.449 91.1357 149.818 85.1444 158.472L85.1412 158.476C80.8032 164.705 77.0712 169.942 73.9466 174.182C70.9327 178.312 68.1891 181.896 65.7171 184.93L65.7054 184.944L65.6934 184.959C63.2316 187.868 60.9839 190.397 58.9519 192.542C56.9048 194.703 54.6912 196.803 52.3124 198.843C48.3838 202.307 44.095 205.033 39.4489 207.007L39.4374 207.012L39.4258 207.017C34.8647 208.888 30.2187 209.833 25.5 209.833C18.9933 209.833 13.5349 207.988 9.31916 204.145C5.08705 200.286 3 195.23 3 189.167C3 186.64 3.36139 184.214 4.09283 181.898L4.10702 181.853L4.12331 181.809C4.95941 179.539 6.04866 177.525 7.40687 175.79C8.76517 173.945 10.3497 172.473 12.1744 171.43L12.1997 171.416L12.2255 171.402C14.1632 170.369 16.2068 169.833 18.3333 169.833C21.2862 169.833 23.8572 170.862 25.9142 172.919C27.9517 174.957 29 177.464 29 180.333C29 182.858 28.0753 185.182 26.3856 187.261L26.3655 187.286L26.3447 187.31C24.6483 189.267 22.5673 190.565 20.1273 191.113L14.7787 192.45L14.7385 192.459C13.4211 192.731 12.6656 193.204 12.23 193.715C11.8052 194.213 11.5 194.963 11.5 196.167C11.5 198.171 12.5122 199.989 15.2046 201.624C17.9261 203.276 21.431 204.167 25.8333 204.167C29.5293 204.167 33.3156 203.347 37.2062 201.664L37.215 201.66L37.2239 201.657C41.2121 199.978 44.8388 197.617 48.1096 194.562C49.8508 192.82 51.6507 190.911 53.5095 188.833L53.5285 188.812L53.5481 188.791C55.4924 186.739 57.6165 184.235 59.9213 181.272L59.9352 181.254L59.9495 181.237C62.3747 178.26 65.1919 174.67 68.4024 170.463C71.6224 166.133 75.5074 160.916 80.0573 154.812C85.1676 147.814 89.1183 142.472 91.9058 138.792L91.9113 138.785C94.8104 134.994 96.5075 132.749 97.0392 132.004L97.0527 131.985L97.0667 131.967C100.417 127.499 103.715 123.307 106.96 119.391L106.971 119.378L106.981 119.365C110.326 115.463 113.616 111.727 116.851 108.157L116.857 108.15C120.437 104.235 123.91 100.65 127.277 97.3954Z" fill="#1C1B19"/>
<path d="M296.59 157.682C291.295 173.569 283.792 185.761 274.083 194.257C264.374 202.752 253.009 207 239.99 207C236.349 207 232.984 206.504 229.895 205.511C226.916 204.518 224.268 203.138 221.951 201.373C219.744 199.497 218.034 197.346 216.82 194.919C215.607 192.491 215 189.788 215 186.809C215 184.603 215.331 182.506 215.993 180.52C216.765 178.534 217.703 176.824 218.806 175.39C220.02 173.845 221.399 172.632 222.944 171.749C224.599 170.866 226.364 170.425 228.24 170.425C230.777 170.425 232.874 171.308 234.529 173.073C236.294 174.728 237.177 176.824 237.177 179.362C237.177 181.348 236.57 183.168 235.356 184.823C234.253 186.368 232.763 187.361 230.888 187.802L225.095 189.292C223.882 189.512 222.834 190.174 221.951 191.278C221.179 192.381 220.792 193.595 220.792 194.919C220.792 196.243 221.234 197.511 222.116 198.725C222.999 199.939 224.158 201.042 225.592 202.035C227.137 202.918 228.902 203.635 230.888 204.187C232.874 204.738 234.97 205.014 237.177 205.014C243.355 205.014 248.872 202.918 253.727 198.725C255.271 197.401 256.65 196.022 257.864 194.588C259.078 193.153 260.346 191.278 261.67 188.961C263.105 186.644 264.649 183.775 266.304 180.355C267.959 176.824 270 172.301 272.428 166.784L274.745 161.819H272.593C268.401 161.819 264.429 161.047 260.677 159.502C257.036 157.847 253.837 155.64 251.079 152.882C248.32 150.124 246.114 146.924 244.459 143.283C242.914 139.532 242.142 135.505 242.142 131.202C242.142 125.685 243.741 120.334 246.941 115.149C250.141 109.853 254.719 104.998 260.677 100.585C265.863 96.8336 271.324 93.9649 277.062 91.979C282.909 89.993 288.647 89 294.274 89C296.48 89 298.301 89.1103 299.735 89.331C301.28 89.5517 303.321 89.993 305.858 90.655L305.527 92.1445C302.99 91.5928 300.949 91.2066 299.404 90.986C297.97 90.7653 296.315 90.655 294.439 90.655C288.591 90.655 282.964 91.979 277.558 94.6269C272.152 97.2749 267.408 100.861 263.325 105.384C259.243 109.908 255.988 115.149 253.561 121.107C251.134 126.954 249.92 133.078 249.92 139.477C249.92 145.876 251.796 150.951 255.547 154.703C259.409 158.344 264.649 160.164 271.269 160.164C271.821 160.164 272.428 160.164 273.09 160.164C273.752 160.054 274.579 159.943 275.572 159.833C285.612 136.663 295.542 119.065 305.362 107.039C315.292 95.0131 324.725 89 333.662 89C337.193 89 340.116 90.3791 342.433 93.1374C344.861 95.7854 346.074 99.0402 346.074 102.902C346.074 107.094 344.75 111.673 342.102 116.638C339.454 121.603 335.869 126.623 331.345 131.698C326.821 136.663 321.526 141.408 315.457 145.931C309.499 150.455 303.21 154.372 296.59 157.682ZM297.087 155.696C302.714 152.937 308.12 149.241 313.306 144.607C318.602 139.973 323.236 135.008 327.208 129.712C331.29 124.306 334.545 118.845 336.972 113.328C339.51 107.701 340.778 102.571 340.778 97.9369C340.778 93.0823 338.351 90.655 333.497 90.655C330.076 90.655 326.932 91.648 324.063 93.6339C321.195 95.6199 318.436 98.8747 315.788 103.398C313.14 107.922 310.437 113.88 307.679 121.272C305.031 128.664 302.162 137.767 299.073 148.579C298.852 149.352 298.576 150.345 298.245 151.558C297.914 152.772 297.528 154.151 297.087 155.696Z" fill="#133984"/>
<path fill-rule="evenodd" clip-rule="evenodd" d="M299.523 154.435C298.716 154.875 297.904 155.295 297.087 155.696C297.145 155.493 297.202 155.294 297.258 155.097C297.46 154.386 297.65 153.712 297.827 153.075C297.975 152.544 298.115 152.038 298.245 151.558C298.576 150.345 298.852 149.352 299.073 148.579C302.162 137.767 305.031 128.664 307.679 121.272C310.437 113.88 313.14 107.922 315.788 103.398C318.436 98.8747 321.194 95.6199 324.063 93.6339C324.435 93.3764 324.812 93.1356 325.193 92.9114C327.752 91.4071 330.52 90.655 333.497 90.655C333.552 90.655 333.607 90.6553 333.662 90.6559C336.261 90.686 338.148 91.4278 339.323 92.8814C340.293 94.0814 340.778 95.7666 340.778 97.9369C340.778 102.571 339.51 107.701 336.972 113.328C334.545 118.845 331.29 124.306 327.208 129.712C323.236 135.008 318.602 139.973 313.306 144.607C312.186 145.608 311.056 146.565 309.916 147.478C306.542 150.18 303.078 152.499 299.523 154.435ZM300.277 151.713C304.282 149.367 308.182 146.504 311.973 143.116L311.981 143.109L311.989 143.102C317.187 138.554 321.724 133.69 325.608 128.512L325.611 128.507C329.612 123.21 332.784 117.881 335.141 112.523L335.145 112.514L335.149 112.506C337.607 107.056 338.778 102.21 338.778 97.9369C338.778 95.8179 338.25 94.596 337.544 93.8897C336.837 93.1834 335.616 92.655 333.497 92.655C330.492 92.655 327.743 93.5189 325.202 95.2783C322.662 97.0362 320.082 100.022 317.514 104.409C314.947 108.794 312.292 114.632 309.557 121.959C306.93 129.295 304.076 138.348 300.996 149.129C300.801 149.811 300.561 150.671 300.277 151.713ZM311.111 149.083C306.826 152.048 302.378 154.715 297.768 157.085C297.377 157.286 296.984 157.485 296.59 157.682C296.526 157.876 296.461 158.069 296.395 158.262C291.111 173.867 283.673 185.865 274.083 194.257C264.374 202.752 253.009 207 239.99 207C239.536 207 239.087 206.992 238.642 206.977C238.148 206.96 237.66 206.933 237.177 206.897C234.815 206.721 232.58 206.318 230.47 205.689C230.278 205.631 230.086 205.572 229.895 205.511C228.1 204.912 226.426 204.174 224.872 203.296C224.835 203.275 224.799 203.254 224.762 203.233C223.776 202.67 222.839 202.05 221.951 201.373C221.583 201.06 221.229 200.74 220.888 200.412C219.188 198.772 217.832 196.941 216.82 194.919C215.607 192.491 215 189.788 215 186.809C215 184.603 215.331 182.506 215.993 180.52C216.765 178.534 217.703 176.824 218.806 175.39C220.02 173.845 221.399 172.632 222.944 171.749C224.599 170.866 226.364 170.425 228.24 170.425C230.777 170.425 232.874 171.308 234.529 173.073C236.294 174.728 237.177 176.824 237.177 179.362C237.177 181.348 236.57 183.168 235.356 184.823C234.253 186.368 232.763 187.361 230.888 187.802L225.095 189.292C223.882 189.512 222.834 190.174 221.951 191.278C221.179 192.381 220.792 193.595 220.792 194.919C220.792 196.243 221.234 197.511 222.116 198.725C222.199 198.839 222.284 198.951 222.371 199.063C222.592 199.345 222.829 199.621 223.08 199.891C223.103 199.915 223.126 199.939 223.149 199.964C223.847 200.7 224.662 201.391 225.592 202.035C227.001 202.84 228.593 203.507 230.368 204.037C230.374 204.039 230.379 204.04 230.384 204.042C230.551 204.091 230.718 204.139 230.888 204.187C232.874 204.738 234.97 205.014 237.177 205.014C237.664 205.014 238.146 205.001 238.625 204.975C244.221 204.671 249.254 202.587 253.727 198.725C255.271 197.401 256.65 196.022 257.864 194.588C259.078 193.153 260.346 191.278 261.67 188.961C263.105 186.644 264.649 183.775 266.304 180.355C267.959 176.824 270 172.301 272.428 166.784L274.745 161.819H272.593C272.575 161.819 272.556 161.819 272.538 161.819C272.113 161.818 271.69 161.81 271.269 161.793C267.562 161.647 264.032 160.883 260.677 159.502C258.445 158.487 256.379 157.265 254.478 155.836C254.466 155.827 254.454 155.818 254.441 155.808C253.726 155.269 253.035 154.7 252.367 154.102C251.927 153.708 251.498 153.302 251.079 152.882C248.32 150.124 246.114 146.924 244.459 143.283C242.914 139.532 242.142 135.505 242.142 131.202C242.142 125.685 243.741 120.334 246.941 115.149C250.141 109.853 254.719 104.998 260.677 100.585C265.863 96.8336 271.324 93.9649 277.062 91.979C279.257 91.2332 281.438 90.6275 283.602 90.1618C287.202 89.3873 290.759 89 294.274 89C294.329 89 294.384 89.0001 294.439 89.0002C296.525 89.0055 298.259 89.1111 299.642 89.317C299.648 89.3179 299.654 89.3188 299.66 89.3197C299.685 89.3234 299.71 89.3272 299.735 89.331C301.278 89.5515 303.317 89.9922 305.852 90.6532C305.854 90.6538 305.856 90.6544 305.858 90.655L305.527 92.1445C305.527 92.1445 305.527 92.1444 305.527 92.1445C305.509 92.1405 305.491 92.1365 305.473 92.1326C303.011 91.5982 301.019 91.2204 299.497 90.9993C299.491 90.9984 299.485 90.9976 299.479 90.9967C299.454 90.9931 299.429 90.9895 299.404 90.986C297.97 90.7653 296.315 90.655 294.439 90.655C294.384 90.655 294.329 90.6551 294.274 90.6553C290.8 90.6702 287.405 91.1528 284.087 92.1033C281.876 92.7367 279.7 93.5779 277.558 94.6269C272.152 97.2749 267.408 100.861 263.325 105.384C259.243 109.908 255.988 115.149 253.561 121.107C251.134 126.954 249.92 133.078 249.92 139.477C249.92 144.821 251.228 149.242 253.845 152.74C254.361 153.43 254.929 154.084 255.547 154.703C257.173 156.236 259.044 157.446 261.159 158.334C261.173 158.34 261.187 158.345 261.201 158.351C264.099 159.56 267.455 160.164 271.269 160.164H273.09C273.558 160.086 274.11 160.008 274.745 159.93C275.006 159.898 275.282 159.865 275.572 159.833C275.574 159.828 275.576 159.824 275.578 159.819C285.616 136.656 295.544 119.063 305.362 107.039C311.886 99.1377 318.196 93.832 324.291 91.122C327.416 89.7328 330.484 89.0257 333.497 89.0007C333.552 89.0002 333.607 89 333.662 89C336.377 89 338.733 89.8156 340.73 91.4466C341.33 91.9366 341.898 92.5002 342.433 93.1374C344.861 95.7854 346.074 99.0402 346.074 102.902C346.074 107.094 344.75 111.673 342.102 116.638C339.454 121.603 335.869 126.623 331.345 131.698C326.821 136.663 321.525 141.408 315.457 145.931C314.028 147.017 312.579 148.067 311.111 149.083ZM316.66 147.529C310.828 151.956 304.683 155.813 298.224 159.098C292.862 174.847 285.282 187.115 275.4 195.762C265.322 204.58 253.489 209 239.99 209C236.167 209 232.592 208.478 229.283 207.415L229.273 207.411L229.262 207.408C226.091 206.351 223.244 204.873 220.739 202.964L220.696 202.932L220.656 202.897C218.258 200.859 216.374 198.497 215.032 195.813C213.666 193.082 213 190.068 213 186.809C213 184.399 213.362 182.089 214.096 179.888L214.111 179.841L214.129 179.795C214.958 177.663 215.984 175.779 217.221 174.17L217.227 174.162L217.234 174.154C218.59 172.428 220.161 171.036 221.952 170.012L221.977 169.998L222.003 169.984C223.947 168.947 226.036 168.425 228.24 168.425C231.278 168.425 233.897 169.499 235.944 171.658C238.102 173.705 239.177 176.324 239.177 179.362C239.177 181.784 238.428 184.013 236.976 185.996C235.591 187.93 233.693 189.192 231.367 189.744L225.524 191.247L225.453 191.259C224.797 191.379 224.168 191.727 223.553 192.477C223.037 193.235 222.792 194.033 222.792 194.919C222.792 195.765 223.065 196.629 223.734 197.549C224.451 198.535 225.415 199.47 226.659 200.341C228.023 201.111 229.606 201.755 231.423 202.26C233.223 202.759 235.138 203.014 237.177 203.014C242.856 203.014 247.913 201.103 252.419 197.211L252.425 197.207C253.895 195.946 255.198 194.642 256.337 193.296C257.447 191.984 258.648 190.22 259.934 187.968L259.951 187.938L259.97 187.908C261.355 185.67 262.865 182.87 264.499 179.495C266.143 175.986 268.176 171.482 270.597 165.979L270.606 165.958L271.611 163.806C267.524 163.693 263.621 162.877 259.916 161.351L259.883 161.338L259.85 161.323C255.996 159.571 252.597 157.229 249.664 154.296C246.732 151.364 244.39 147.965 242.638 144.111L242.623 144.078L242.609 144.045C240.959 140.038 240.142 135.75 240.142 131.202C240.142 125.279 241.864 119.571 245.234 114.107C248.592 108.551 253.363 103.514 259.487 98.9777L259.496 98.971L259.505 98.9644C264.841 95.1046 270.476 92.1424 276.407 90.089L276.419 90.0852C282.453 88.0357 288.408 87 294.274 87C296.53 87 298.458 87.1118 300.028 87.3526C301.679 87.5892 303.8 88.051 306.363 88.7197L308.229 89.2065L307.048 94.5217L305.103 94.0988C302.585 93.5516 300.597 93.1768 299.121 92.9659L299.11 92.9643L299.1 92.9627C297.79 92.7612 296.241 92.655 294.439 92.655C288.906 92.655 283.579 93.9051 278.438 96.4231C273.263 98.9575 268.724 102.387 264.81 106.724C260.892 111.066 257.758 116.106 255.413 121.861L255.408 121.873C253.083 127.475 251.92 133.338 251.92 139.477C251.92 145.45 253.653 149.969 256.94 153.268C260.343 156.464 265.04 158.164 271.269 158.164H272.927C273.309 158.103 273.732 158.043 274.196 157.983C284.115 135.252 293.979 117.818 303.813 105.774L303.82 105.766C313.859 93.6069 323.805 87 333.662 87C337.783 87 341.253 88.6396 343.937 91.8181C346.71 94.8583 348.074 98.5959 348.074 102.902C348.074 107.516 346.619 112.42 343.867 117.579C341.131 122.71 337.446 127.859 332.838 133.029L332.831 133.037L332.823 133.045C328.206 138.114 322.815 142.941 316.66 147.529Z" fill="#1C1B19"/>
</svg>
