<svg width="174" height="40" viewBox="0 0 174 40" fill="none" xmlns="http://www.w3.org/2000/svg">
<g clip-path="url(#clip0_1715_96)">
<path fill-rule="evenodd" clip-rule="evenodd" d="M49.2401 20.7268H8.76172V20.0312H49.2401V20.7268Z" fill="#EDC600"/>
<path d="M28.6567 12.3809L30.3314 17.5347H35.7508L31.3664 20.7199L33.0411 25.8737L28.6567 22.6884L24.2722 25.8737L25.9469 20.7199L21.5625 17.5347H26.982L28.6567 12.3809Z" fill="white"/>
<path fill-rule="evenodd" clip-rule="evenodd" d="M30.3314 17.5347L28.6567 12.3809L26.982 17.5347H21.5625L25.9469 20.7199L24.2722 25.8737L28.6567 22.6884L33.0411 25.8737L31.3664 20.7199L35.7508 17.5347H30.3314ZM34.8325 17.833H30.1146L28.6567 13.3463L27.1987 17.833H22.4808L26.2977 20.6059L24.8398 25.0926L28.6567 22.3197L32.4736 25.0926L31.0156 20.6059L34.8325 17.833Z" fill="#EDC600"/>
<path d="M35.5848 17.6044L31.3327 20.6613L28.6478 19.8424L35.5848 17.6044Z" fill="#EDC600"/>
<path d="M33.0497 25.8834L28.6489 22.6759L28.6489 19.8414L33.0497 25.8834Z" fill="#EDC600"/>
<path d="M24.3212 25.8092L25.9622 20.7196L28.648 19.8419L24.3212 25.8092Z" fill="#EDC600"/>
<path d="M21.7031 17.667L27.0129 17.667L28.6582 19.8926L21.7031 17.667Z" fill="#EDC600"/>
<path d="M28.651 12.4564L30.2923 17.5284L28.6506 19.8409L28.651 12.4564Z" fill="#EDC600"/>
<path fill-rule="evenodd" clip-rule="evenodd" d="M40.479 5.84199H17.5273V5.14648H40.479V5.84199Z" fill="#EDC600"/>
<path fill-rule="evenodd" clip-rule="evenodd" d="M37.0005 38.5314H21.0039V37.8359H37.0005V38.5314Z" fill="#EDC600"/>
<path fill-rule="evenodd" clip-rule="evenodd" d="M4.72982 22.4139L17.6996 3.47807L18.2734 3.87109L5.30363 22.8069L4.72982 22.4139Z" fill="#EDC600"/>
<path fill-rule="evenodd" clip-rule="evenodd" d="M53.4263 21.2824L40.4731 4.45082L39.9219 4.875L52.8751 21.7065L53.4263 21.2824Z" fill="#EDC600"/>
<path fill-rule="evenodd" clip-rule="evenodd" d="M4.03384 19.8676L15.3246 36.352L15.8984 35.959L4.60765 19.4746L4.03384 19.8676Z" fill="#EDC600"/>
<path fill-rule="evenodd" clip-rule="evenodd" d="M52.8998 20.2836L41.609 36.768L41.0352 36.375L52.3259 19.8906L52.8998 20.2836Z" fill="#EDC600"/>
<path d="M17.5278 0L19.2025 5.15379H24.6219L20.2375 8.33902L21.9122 13.4928L17.5278 10.3076L13.1433 13.4928L14.818 8.33902L10.4336 5.15379H15.853L17.5278 0Z" fill="white"/>
<path fill-rule="evenodd" clip-rule="evenodd" d="M19.2025 5.15379L17.5278 0L15.853 5.15379H10.4336L14.818 8.33902L13.1433 13.4928L17.5278 10.3076L21.9122 13.4928L20.2375 8.33902L24.6219 5.15379H19.2025ZM23.7036 5.45214H18.9857L17.5278 0.965468L16.0698 5.45214H11.3519L15.1688 8.22506L13.7109 12.7117L17.5278 9.93881L21.3447 12.7117L19.8867 8.22506L23.7036 5.45214Z" fill="#EDC600"/>
<path d="M24.4559 5.22358L20.2038 8.28048L17.5189 7.46155L24.4559 5.22358Z" fill="#EDC600"/>
<path d="M21.9208 13.5026L17.52 10.2951L17.52 7.46057L21.9208 13.5026Z" fill="#EDC600"/>
<path d="M13.1923 13.4283L14.8333 8.33872L17.5191 7.46099L13.1923 13.4283Z" fill="#EDC600"/>
<path d="M10.5742 5.2861L15.884 5.2861L17.5293 7.51172L10.5742 5.2861Z" fill="#EDC600"/>
<path d="M17.5221 0.0755538L19.1634 5.14759L17.5217 7.46004L17.5221 0.0755538Z" fill="#EDC600"/>
<path d="M17.5278 25.873L19.2025 31.0268H24.6219L20.2375 34.2121L21.9122 39.3659L17.5278 36.1806L13.1433 39.3659L14.818 34.2121L10.4336 31.0268H15.853L17.5278 25.873Z" fill="white"/>
<path fill-rule="evenodd" clip-rule="evenodd" d="M19.2025 31.0268L17.5278 25.873L15.853 31.0268H10.4336L14.818 34.2121L13.1433 39.3659L17.5278 36.1806L21.9122 39.3659L20.2375 34.2121L24.6219 31.0268H19.2025ZM23.7036 31.3252H18.9857L17.5278 26.8385L16.0698 31.3252H11.3519L15.1688 34.0981L13.7109 38.5848L17.5278 35.8119L21.3447 38.5848L19.8867 34.0981L23.7036 31.3252Z" fill="#EDC600"/>
<path d="M24.4559 31.0966L20.2038 34.1535L17.5189 33.3346L24.4559 31.0966Z" fill="#EDC600"/>
<path d="M21.9208 39.3756L17.52 36.1681L17.52 33.3336L21.9208 39.3756Z" fill="#EDC600"/>
<path d="M13.1923 39.3014L14.8333 34.2118L17.5191 33.334L13.1923 39.3014Z" fill="#EDC600"/>
<path d="M10.5742 31.1591L15.884 31.1591L17.5293 33.3848L10.5742 31.1591Z" fill="#EDC600"/>
<path d="M17.5221 25.9486L19.1634 31.0206L17.5217 33.3331L17.5221 25.9486Z" fill="#EDC600"/>
<path d="M7.09416 12.3809L8.76886 17.5347H14.1883L9.80389 20.7199L11.4786 25.8737L7.09416 22.6884L2.70973 25.8737L4.38443 20.7199L0 17.5347H5.41945L7.09416 12.3809Z" fill="white"/>
<path fill-rule="evenodd" clip-rule="evenodd" d="M8.76886 17.5347L7.09416 12.3809L5.41945 17.5347H0L4.38443 20.7199L2.70973 25.8737L7.09416 22.6884L11.4786 25.8737L9.80389 20.7199L14.1883 17.5347H8.76886ZM13.27 17.833H8.55208L7.09416 13.3463L5.63623 17.833H0.918287L4.73519 20.6059L3.27726 25.0926L7.09416 22.3197L10.9111 25.0926L9.45313 20.6059L13.27 17.833Z" fill="#EDC600"/>
<path d="M14.0223 17.6044L9.77021 20.6613L7.08535 19.8424L14.0223 17.6044Z" fill="#EDC600"/>
<path d="M11.4872 25.8834L7.08638 22.6759L7.08638 19.8414L11.4872 25.8834Z" fill="#EDC600"/>
<path d="M2.75871 25.8092L4.39975 20.7196L7.08547 19.8419L2.75871 25.8092Z" fill="#EDC600"/>
<path d="M0.140625 17.667L5.4504 17.667L7.09568 19.8926L0.140625 17.667Z" fill="#EDC600"/>
<path d="M7.08855 12.4564L8.72977 17.5284L7.08808 19.8409L7.08855 12.4564Z" fill="#EDC600"/>
<path d="M40.477 0L42.1517 5.15379H47.5711L43.1867 8.33902L44.8614 13.4928L40.477 10.3076L36.0925 13.4928L37.7672 8.33902L33.3828 5.15379H38.8023L40.477 0Z" fill="white"/>
<path fill-rule="evenodd" clip-rule="evenodd" d="M42.1517 5.15379L40.477 0L38.8023 5.15379H33.3828L37.7672 8.33902L36.0925 13.4928L40.477 10.3076L44.8614 13.4928L43.1867 8.33902L47.5711 5.15379H42.1517ZM46.6528 5.45214H41.9349L40.477 0.965468L39.019 5.45214H34.3011L38.118 8.22506L36.6601 12.7117L40.477 9.93881L44.2939 12.7117L42.8359 8.22506L46.6528 5.45214Z" fill="#EDC600"/>
<path d="M47.4051 5.22358L43.153 8.28048L40.4682 7.46155L47.4051 5.22358Z" fill="#EDC600"/>
<path d="M44.87 13.5026L40.4692 10.2951L40.4692 7.46057L44.87 13.5026Z" fill="#EDC600"/>
<path d="M36.1415 13.4283L37.7826 8.33872L40.4683 7.46099L36.1415 13.4283Z" fill="#EDC600"/>
<path d="M33.5234 5.2861L38.8332 5.2861L40.4785 7.51172L33.5234 5.2861Z" fill="#EDC600"/>
<path d="M40.4714 0.0755538L42.1126 5.14759L40.4709 7.46004L40.4714 0.0755538Z" fill="#EDC600"/>
<path d="M40.477 25.873L42.1517 31.0268H47.5711L43.1867 34.2121L44.8614 39.3659L40.477 36.1806L36.0925 39.3659L37.7672 34.2121L33.3828 31.0268H38.8023L40.477 25.873Z" fill="white"/>
<path fill-rule="evenodd" clip-rule="evenodd" d="M42.1517 31.0268L40.477 25.873L38.8023 31.0268H33.3828L37.7672 34.2121L36.0925 39.3659L40.477 36.1806L44.8614 39.3659L43.1867 34.2121L47.5711 31.0268H42.1517ZM46.6528 31.3252H41.9349L40.477 26.8385L39.019 31.3252H34.3011L38.118 34.0981L36.6601 38.5848L40.477 35.8119L44.2939 38.5848L42.8359 34.0981L46.6528 31.3252Z" fill="#EDC600"/>
<path d="M47.4051 31.0966L43.153 34.1535L40.4682 33.3346L47.4051 31.0966Z" fill="#EDC600"/>
<path d="M44.87 39.3756L40.4692 36.1681L40.4692 33.3336L44.87 39.3756Z" fill="#EDC600"/>
<path d="M36.1415 39.3014L37.7826 34.2118L40.4683 33.334L36.1415 39.3014Z" fill="#EDC600"/>
<path d="M33.5234 31.1591L38.8332 31.1591L40.4785 33.3848L33.5234 31.1591Z" fill="#EDC600"/>
<path d="M40.4714 25.9486L42.1126 31.0206L40.4709 33.3331L40.4714 25.9486Z" fill="#EDC600"/>
<path d="M51.6059 12.3809L53.2806 17.5347H58.7L54.3156 20.7199L55.9903 25.8737L51.6059 22.6884L47.2214 25.8737L48.8961 20.7199L44.5117 17.5347H49.9312L51.6059 12.3809Z" fill="white"/>
<path fill-rule="evenodd" clip-rule="evenodd" d="M53.2806 17.5347L51.6059 12.3809L49.9312 17.5347H44.5117L48.8961 20.7199L47.2214 25.8737L51.6059 22.6884L55.9903 25.8737L54.3156 20.7199L58.7 17.5347H53.2806ZM57.7817 17.833H53.0638L51.6059 13.3463L50.148 17.833H45.43L49.2469 20.6059L47.789 25.0926L51.6059 22.3197L55.4228 25.0926L53.9649 20.6059L57.7817 17.833Z" fill="#EDC600"/>
<path d="M58.5341 17.6044L54.2819 20.6613L51.5971 19.8424L58.5341 17.6044Z" fill="#EDC600"/>
<path d="M55.9989 25.8834L51.5981 22.6759L51.5981 19.8414L55.9989 25.8834Z" fill="#EDC600"/>
<path d="M47.2704 25.8092L48.9115 20.7196L51.5972 19.8419L47.2704 25.8092Z" fill="#EDC600"/>
<path d="M44.6523 17.667L49.9621 17.667L51.6074 19.8926L44.6523 17.667Z" fill="#EDC600"/>
<path d="M51.6003 12.4564L53.2415 17.5284L51.5998 19.8409L51.6003 12.4564Z" fill="#EDC600"/>
<path d="M19.0798 12.9832C18.3998 13.586 17.7893 14.1656 17.2483 14.722C16.7074 15.2629 16.1587 15.8657 15.6023 16.5303C15.0459 17.1794 14.4509 17.9367 13.8172 18.8023C13.1835 19.6523 12.4494 20.6801 11.6148 21.8857C11.012 22.7512 10.4942 23.4776 10.0615 24.0649C9.64415 24.6368 9.26549 25.1314 8.92546 25.5487C8.58544 25.9505 8.27632 26.2983 7.99812 26.5919C7.71992 26.8856 7.41853 27.1715 7.09396 27.4497C6.56847 27.9134 5.99661 28.2766 5.37838 28.5393C4.77561 28.7866 4.16511 28.9103 3.54689 28.9103C2.69682 28.9103 2.00905 28.6707 1.48355 28.1916C0.958059 27.7125 0.695312 27.0865 0.695312 26.3137C0.695312 25.9892 0.74168 25.68 0.834414 25.3864C0.942603 25.0927 1.0817 24.8377 1.25172 24.6213C1.42173 24.3895 1.61493 24.2118 1.83131 24.0881C2.06314 23.9645 2.3027 23.9026 2.54999 23.9026C2.89002 23.9026 3.17595 24.0186 3.40778 24.2504C3.63962 24.4822 3.75554 24.7604 3.75554 25.085C3.75554 25.3632 3.65508 25.6259 3.45415 25.8732C3.25323 26.1051 3.01366 26.2519 2.73546 26.3137L1.99359 26.4992C1.54537 26.5919 1.32127 26.8547 1.32127 27.2874C1.32127 27.6893 1.53765 28.0216 1.97041 28.2843C2.40317 28.5471 2.94411 28.6784 3.59325 28.6784C4.14966 28.6784 4.71379 28.5548 5.28565 28.3075C5.87297 28.0602 6.40619 27.7125 6.88531 27.2643C7.1326 27.017 7.38762 26.7465 7.65037 26.4528C7.92857 26.1592 8.22996 25.8037 8.55453 25.3864C8.89455 24.9691 9.28867 24.4668 9.73689 23.8795C10.1851 23.2767 10.726 22.5503 11.3597 21.7002C12.0707 20.7265 12.6194 19.9846 13.0058 19.4746C13.4076 18.9491 13.6472 18.6323 13.7245 18.5241C14.1881 17.9058 14.6441 17.3262 15.0923 16.7853C15.5559 16.2444 16.0119 15.7266 16.4601 15.232C16.9547 14.6911 17.4338 14.1965 17.8975 13.7483C18.3612 13.3 18.7475 12.9523 19.0567 12.705C19.1803 12.5968 19.2962 12.5427 19.4044 12.5427C19.559 12.5427 19.6362 12.62 19.6362 12.7745C19.6362 12.8055 19.6208 12.8518 19.5899 12.9137C19.559 12.9755 19.5281 13.045 19.4971 13.1223C19.2653 13.5396 19.0026 14.0342 18.7089 14.606C18.4307 15.1625 18.1448 15.7575 17.8511 16.3912C17.5729 17.0094 17.2947 17.6431 17.0165 18.2922C16.7538 18.9414 16.5142 19.5519 16.2978 20.1237L14.5822 24.6677C14.304 25.4096 14.0722 26.0433 13.8867 26.5687C13.7013 27.0942 13.5699 27.527 13.4926 27.867C13.4772 27.8979 13.4617 27.952 13.4462 28.0293C13.4308 28.0911 13.4076 28.1916 13.3767 28.3307C13.5313 28.1607 13.6626 28.0139 13.7708 27.8902C13.8945 27.7666 14.0027 27.6429 14.0954 27.5193C14.2036 27.3802 14.3118 27.2256 14.42 27.0556C14.5436 26.8701 14.6904 26.646 14.8604 26.3833L16.4601 23.8331C17.0165 22.9367 17.5034 22.1716 17.9207 21.5379C18.3534 20.8888 18.7553 20.3092 19.1262 19.7992C19.4971 19.2737 19.8681 18.7714 20.239 18.2922C20.6254 17.8131 21.0582 17.2953 21.5373 16.7389C22.2637 15.8889 22.9206 15.1702 23.5079 14.5829C24.0952 13.9955 24.6825 13.4701 25.2698 13.0064C25.6562 12.6818 25.9576 12.5195 26.174 12.5195C26.3131 12.5195 26.3827 12.5968 26.3827 12.7514C26.3827 12.8286 26.3595 12.9214 26.3131 13.0296C26.2667 13.1223 26.1663 13.2769 26.0117 13.4932C25.919 13.6323 25.8108 13.8024 25.6872 14.0033C25.579 14.1887 25.4476 14.4129 25.293 14.6756C24.9685 15.2165 24.6748 15.7189 24.4121 16.1825C24.1648 16.6307 23.9484 17.0403 23.7629 17.4113C23.5929 17.7513 23.3765 18.2072 23.1138 18.7791C22.851 19.3355 22.5419 20.0078 22.1864 20.796C21.8155 21.6307 21.5141 22.3107 21.2823 22.8362C21.0504 23.3462 20.8804 23.7172 20.7722 23.949C20.3086 25.0464 19.9376 25.9892 19.6594 26.7774C19.3812 27.5502 19.2421 28.0448 19.2421 28.2611C19.2421 28.5084 19.3426 28.6321 19.5435 28.6321C19.6826 28.6321 19.8681 28.5548 20.0999 28.4002C20.3472 28.2302 20.6177 27.9984 20.9113 27.7047C21.2205 27.3956 21.545 27.0401 21.8851 26.6383C22.2251 26.221 22.5728 25.7651 22.9283 25.2705L23.0906 25.0618L23.2761 25.2009C22.4415 26.391 21.6764 27.3106 20.9809 27.9598C20.3008 28.6089 19.7444 28.9335 19.3117 28.9335C18.8789 28.9335 18.5157 28.7016 18.2221 28.238C17.9439 27.7743 17.8048 27.1947 17.8048 26.4992C17.8048 25.0618 18.4307 23.269 19.6826 21.1206C20.95 18.9723 22.8819 16.4066 25.4785 13.4237L26.0349 12.7977C24.7212 13.6169 23.2761 14.9538 21.6996 16.8085C20.1386 18.6632 18.4539 21.0511 16.6456 23.9722C16.2901 24.5131 15.981 24.9923 15.7182 25.4096C15.4709 25.8269 15.2546 26.1824 15.0691 26.476C14.6672 27.0788 14.2731 27.6352 13.8867 28.1452C13.794 28.2689 13.6935 28.3771 13.5854 28.4698C13.4926 28.5625 13.3922 28.6553 13.284 28.748C13.114 28.8562 12.9826 28.9103 12.8898 28.9103C12.6271 28.9103 12.3953 28.7094 12.1943 28.3075C12.0089 27.8902 11.9161 27.3879 11.9161 26.8006C11.9161 26.1051 12.0398 25.3323 12.2871 24.4822C12.5498 23.6322 12.913 22.7435 13.3767 21.8161C13.8249 20.9506 14.3504 20.0155 14.9532 19.0109C15.5559 17.9908 16.151 17.0558 16.7383 16.2057C16.8156 16.0975 16.9856 15.858 17.2483 15.487C17.5265 15.1161 17.8975 14.606 18.3612 13.9569C18.4384 13.8487 18.5312 13.7173 18.6394 13.5628C18.763 13.3928 18.9098 13.1996 19.0798 12.9832Z" fill="white"/>
<path fill-rule="evenodd" clip-rule="evenodd" d="M18.9312 12.807C18.9747 12.7709 19.0168 12.7365 19.0575 12.7039C19.1812 12.5957 19.2971 12.5416 19.4053 12.5416C19.5598 12.5416 19.6371 12.6189 19.6371 12.7735C19.6371 12.8044 19.6217 12.8507 19.5907 12.9126C19.5598 12.9744 19.5289 13.0439 19.498 13.1212C19.2662 13.5385 19.0034 14.0331 18.7098 14.605C18.4316 15.1614 18.1456 15.7564 17.852 16.3901C17.5738 17.0083 17.2956 17.642 17.0174 18.2911C16.7546 18.9403 16.5151 19.5508 16.2987 20.1226L14.5831 24.6666C14.3049 25.4085 14.0731 26.0422 13.8876 26.5677C13.7219 27.0372 13.5994 27.4326 13.52 27.7541C13.5106 27.7924 13.5017 27.8297 13.4935 27.8659C13.478 27.8968 13.4626 27.9509 13.4471 28.0282C13.4339 28.081 13.4151 28.1618 13.3907 28.2708C13.3905 28.2714 13.3904 28.2721 13.3902 28.2727C13.3862 28.2909 13.3819 28.3099 13.3776 28.3296C13.3887 28.3173 13.3997 28.3052 13.4107 28.2932C13.415 28.2884 13.4193 28.2837 13.4236 28.2789C13.4911 28.2044 13.554 28.1346 13.6121 28.0695C13.6142 28.0671 13.6163 28.0648 13.6184 28.0625C13.6404 28.0377 13.6618 28.0137 13.6825 27.9903C13.6828 27.99 13.6831 27.9897 13.6834 27.9894C13.6892 27.9828 13.6951 27.9762 13.7009 27.9696C13.715 27.9536 13.7289 27.9379 13.7424 27.9225C13.7523 27.9112 13.7621 27.9001 13.7717 27.8891C13.7725 27.8883 13.7734 27.8874 13.7743 27.8865C13.8968 27.7637 14.0042 27.641 14.0962 27.5182C14.2044 27.3791 14.3126 27.2245 14.4208 27.0545C14.5445 26.869 14.6913 26.6449 14.8613 26.3822L16.461 23.832C17.0174 22.9356 17.5042 22.1705 17.9215 21.5368C18.3543 20.8877 18.7561 20.3081 19.1271 19.7981C19.498 19.2726 19.8689 18.7703 20.2399 18.2911C20.6263 17.812 21.059 17.2942 21.5382 16.7378C21.5493 16.7248 21.5604 16.7118 21.5715 16.6989C21.5717 16.6987 21.5719 16.6984 21.572 16.6982C22.285 15.8654 22.9306 15.1599 23.5088 14.5818C24.0961 13.9945 24.6834 13.469 25.2707 13.0053C25.4769 12.8321 25.6589 12.7051 25.8167 12.6243C25.8221 12.6215 25.8275 12.6188 25.8328 12.6162C25.8567 12.6043 25.8802 12.5934 25.903 12.5837C25.9042 12.5832 25.9055 12.5826 25.9067 12.5821C26.0072 12.5397 26.0966 12.5184 26.1749 12.5184C26.314 12.5184 26.3835 12.5957 26.3835 12.7503C26.3835 12.8275 26.3603 12.9203 26.314 13.0285C26.2676 13.1212 26.1671 13.2758 26.0126 13.4921C25.9198 13.6312 25.8117 13.8013 25.688 14.0022C25.5798 14.1877 25.4484 14.4118 25.2939 14.6745C24.9693 15.2155 24.6757 15.7178 24.4129 16.1814C24.1656 16.6296 23.9492 17.0392 23.7638 17.4102C23.5938 17.7502 23.3774 18.2061 23.1146 18.778C22.8519 19.3344 22.5428 20.0067 22.1873 20.795C21.8164 21.6296 21.515 22.3096 21.2831 22.8351C21.0513 23.3451 20.8813 23.7161 20.7731 23.9479C20.3094 25.0453 19.9385 25.9881 19.6603 26.7763C19.3821 27.5491 19.243 28.0437 19.243 28.26C19.243 28.4882 19.3285 28.6111 19.4995 28.6288C19.5138 28.6302 19.5288 28.631 19.5444 28.631C19.6835 28.631 19.8689 28.5537 20.1008 28.3992C20.3227 28.2466 20.5634 28.0442 20.8227 27.792C20.8233 27.7914 20.8239 27.7908 20.8245 27.7902C20.8535 27.762 20.8827 27.7331 20.9122 27.7036C21.2213 27.3945 21.5459 27.039 21.8859 26.6372C22.2259 26.2199 22.5737 25.764 22.9292 25.2694L23.0914 25.0608L23.2769 25.1998C23.2761 25.2009 23.2754 25.202 23.2746 25.2032C23.2252 25.2736 23.176 25.3431 23.1271 25.4116C23.1253 25.4141 23.1235 25.4166 23.1217 25.4191C22.7583 25.928 22.4083 26.3845 22.0717 26.7886C22.0708 26.7898 22.0699 26.7909 22.0689 26.792C21.7241 27.2058 21.3935 27.5647 21.077 27.8685C21.0451 27.8991 21.0134 27.9292 20.9818 27.9587C20.7101 28.218 20.4582 28.4255 20.226 28.5812C20.2251 28.5818 20.2242 28.5824 20.2233 28.583C19.9743 28.7497 19.748 28.8567 19.5444 28.9041C19.5373 28.9058 19.5302 28.9074 19.5231 28.9089C19.45 28.9245 19.3798 28.9324 19.3125 28.9324C18.8798 28.9324 18.5166 28.7005 18.2229 28.2369C17.9447 27.7732 17.8056 27.1936 17.8056 26.4981C17.8056 25.0607 18.4316 23.2679 19.6835 21.1195C20.9136 19.0343 22.7698 16.556 25.2522 13.6845C25.3273 13.5976 25.403 13.5103 25.4794 13.4226L26.0358 12.7966C25.8384 12.9197 25.6382 13.0544 25.4349 13.2008C25.4328 13.2023 25.4307 13.2038 25.4286 13.2053C25.3932 13.2308 25.3578 13.2567 25.3222 13.2829C25.3216 13.2834 25.321 13.2838 25.3204 13.2842C25.2341 13.348 25.1472 13.4137 25.0598 13.4816C24.6026 13.8366 24.131 14.2487 23.6448 14.7179C23.0206 15.3203 22.3724 16.0168 21.7004 16.8074C21.6892 16.8208 21.6779 16.8342 21.6666 16.8476C21.6665 16.8478 21.6664 16.8479 21.6662 16.8481C21.2563 17.3366 20.8379 17.8618 20.411 18.4236C20.4101 18.4248 20.4093 18.4259 20.4084 18.427C20.0483 18.901 19.6822 19.4011 19.31 19.9272C19.3094 19.9281 19.3088 19.9289 19.3082 19.9298C18.9188 20.4805 18.5227 21.0597 18.12 21.6675C18.1197 21.6679 18.1195 21.6682 18.1192 21.6686C17.6412 22.3901 17.1538 23.1518 16.6572 23.9538C16.657 23.9541 16.6568 23.9544 16.6566 23.9547C16.6532 23.9602 16.6498 23.9656 16.6464 23.9711C16.291 24.512 15.9818 24.9912 15.7191 25.4085C15.4718 25.8258 15.2554 26.1813 15.07 26.4749C15.064 26.4839 15.058 26.4929 15.052 26.5018C15.0514 26.5027 15.0508 26.5036 15.0503 26.5044C14.8983 26.732 14.7474 26.9528 14.5977 27.1671C14.5968 27.1683 14.596 27.1695 14.5951 27.1707C14.4829 27.3313 14.3713 27.4881 14.2602 27.6412C14.2595 27.6421 14.2588 27.6431 14.2581 27.6441C14.1574 27.783 14.0571 27.9188 13.9574 28.0516C13.9541 28.056 13.9507 28.0604 13.9474 28.0649C13.9275 28.0914 13.9075 28.1178 13.8876 28.1441C13.7949 28.2678 13.6944 28.376 13.5862 28.4687C13.5774 28.4775 13.5685 28.4863 13.5596 28.4951C13.4743 28.579 13.3828 28.663 13.2848 28.7469C13.1565 28.8285 13.0502 28.8794 12.9659 28.8994C12.9385 28.9059 12.9135 28.9092 12.8907 28.9092C12.628 28.9092 12.3961 28.7083 12.1952 28.3064C12.0097 27.8891 11.917 27.3868 11.917 26.7995C11.917 26.104 12.0406 25.3312 12.2879 24.4811C12.5507 23.6311 12.9139 22.7424 13.3776 21.815C13.8258 20.9495 14.3513 20.0144 14.954 19.0098C15.5568 17.9897 16.1519 17.0547 16.7392 16.2046C16.8164 16.0964 16.9865 15.8569 17.2492 15.4859C17.5 15.1516 17.8261 14.7041 18.2276 14.1437C18.2715 14.0824 18.3163 14.0198 18.362 13.9558C18.4393 13.8476 18.532 13.7163 18.6402 13.5617C18.7274 13.4419 18.826 13.3105 18.9362 13.1677C18.9823 13.1079 19.0305 13.046 19.0807 12.9821C18.8913 13.15 18.7072 13.3162 18.5285 13.4805C18.5279 13.4811 18.5273 13.4816 18.5267 13.4822C18.4045 13.5946 18.2848 13.7062 18.1676 13.817C18.1323 13.8503 18.0972 13.8836 18.0624 13.9168C18.0471 13.9314 18.0318 13.946 18.0166 13.9606C17.7469 14.2186 17.4911 14.4721 17.2492 14.7209C17.0405 14.9296 16.8306 15.1475 16.6196 15.3747C16.6194 15.3749 16.6192 15.3751 16.6189 15.3753C16.2833 15.7367 15.9447 16.1213 15.6032 16.5292C15.4927 16.658 15.3808 16.7911 15.2673 16.9285C15.2665 16.9295 15.2657 16.9304 15.2649 16.9314C14.8382 17.4481 14.3899 18.025 13.9202 18.6622C13.9191 18.6637 13.918 18.6651 13.9169 18.6666C13.884 18.7112 13.8511 18.756 13.818 18.8012C13.6249 19.0603 13.4224 19.3359 13.2106 19.628C13.2104 19.6283 13.2101 19.6286 13.2099 19.629C13.0016 19.9163 12.7842 20.2196 12.5578 20.5389C12.2594 20.9597 11.9454 21.4083 11.6156 21.8846C11.0128 22.7501 10.4951 23.4765 10.0623 24.0638C9.64501 24.6357 9.26635 25.1303 8.92632 25.5476C8.5863 25.9494 8.27718 26.2972 7.99898 26.5908C7.72078 26.8845 7.41939 27.1704 7.09482 27.4486C7.0929 27.4503 7.09097 27.452 7.08904 27.4537C7.08686 27.4556 7.08468 27.4576 7.08249 27.4595C7.08018 27.4615 7.07786 27.4635 7.07554 27.4656C6.55715 27.9196 5.99383 28.2762 5.38559 28.5355C5.38486 28.5359 5.38412 28.5362 5.38338 28.5365C5.382 28.5371 5.38062 28.5377 5.37924 28.5383C4.79155 28.7794 4.1965 28.9029 3.59411 28.909C3.57866 28.9091 3.5632 28.9092 3.54774 28.9092C2.88535 28.9092 2.32149 28.7637 1.85617 28.4728C1.72434 28.3904 1.60042 28.2963 1.48441 28.1905C1.36625 28.0828 1.26138 27.9676 1.16978 27.845C0.854041 27.4225 0.696171 26.9117 0.696171 26.3126C0.696171 25.9881 0.742538 25.6789 0.835272 25.3853C0.943462 25.0916 1.08256 24.8366 1.25258 24.6202C1.42259 24.3884 1.61578 24.2107 1.83216 24.087C2.064 23.9634 2.30356 23.9015 2.55085 23.9015C2.89088 23.9015 3.17681 24.0175 3.40864 24.2493C3.64048 24.4811 3.7564 24.7593 3.7564 25.0839C3.7564 25.3621 3.65593 25.6249 3.45501 25.8721C3.25409 26.104 3.01452 26.2508 2.73632 26.3126L1.99445 26.4981C1.54623 26.5908 1.32213 26.8536 1.32213 27.2863C1.32213 27.4339 1.35131 27.5721 1.40969 27.701C1.46187 27.8161 1.53739 27.9238 1.63624 28.024C1.72787 28.1168 1.83954 28.2033 1.97126 28.2832C2.39368 28.5397 2.91917 28.671 3.54774 28.6771C3.56314 28.6773 3.57859 28.6774 3.59411 28.6774C4.14893 28.6774 4.71143 28.5544 5.28161 28.3085C5.28257 28.3081 5.28353 28.3077 5.28449 28.3073C5.28516 28.307 5.28584 28.3067 5.28651 28.3064C5.87383 28.0591 6.40705 27.7114 6.88617 27.2632C6.8903 27.259 6.89443 27.2549 6.89856 27.2508C7.14198 27.0068 7.39287 26.7405 7.65123 26.4517C7.92943 26.1581 8.23082 25.8026 8.55539 25.3853C8.89541 24.968 9.28953 24.4657 9.73775 23.8784C10.186 23.2756 10.7269 22.5492 11.3606 21.6991C11.7279 21.1961 12.0519 20.7549 12.3325 20.3757C12.5951 20.0208 12.8198 19.72 13.0066 19.4735C13.2979 19.0926 13.504 18.8213 13.6247 18.6596C13.6251 18.6591 13.6255 18.6585 13.6259 18.658C13.6711 18.5975 13.7042 18.5525 13.7253 18.523C14.189 17.9047 14.6449 17.3252 15.0931 16.7842C15.2075 16.6508 15.3214 16.5188 15.4348 16.3882C15.4353 16.3876 15.4359 16.3869 15.4365 16.3863C15.7823 15.988 16.1238 15.6029 16.461 15.2309C16.6723 14.9997 16.8809 14.777 17.0866 14.5628C17.0873 14.562 17.0881 14.5612 17.0888 14.5605C17.3637 14.2742 17.6335 14.0031 17.8983 13.7472C18.2119 13.4441 18.4901 13.187 18.7329 12.9757C18.789 12.9269 18.8433 12.8806 18.8956 12.8367C18.9065 12.8276 18.9172 12.8186 18.9279 12.8097C18.929 12.8088 18.9301 12.8079 18.9312 12.807ZM17.705 13.5471C18.1693 13.0983 18.5612 12.7451 18.8792 12.4903C19.0272 12.362 19.2045 12.2634 19.4053 12.2634C19.5254 12.2634 19.6667 12.2936 19.7759 12.4029C19.8851 12.5121 19.9153 12.6533 19.9153 12.7735C19.9153 12.8753 19.8716 12.973 19.8396 13.037C19.8127 13.0907 19.7849 13.153 19.7563 13.2245L19.7498 13.2409L19.7412 13.2563C19.5114 13.6699 19.2504 14.1613 18.9579 14.7307C18.6815 15.2836 18.3972 15.8752 18.1051 16.5056C17.8281 17.121 17.5512 17.7518 17.2742 18.3981C17.0125 19.0446 16.7741 19.6522 16.5589 20.2211L14.8436 24.7643C14.8435 24.7644 14.8435 24.7645 14.8435 24.7647C14.5657 25.5053 14.3346 26.1371 14.1499 26.6602C14.0754 26.8716 14.01 27.0665 13.9538 27.2454C14.0307 27.1411 14.1081 27.0277 14.1861 26.9051L14.1877 26.9026L14.1893 26.9002C14.3118 26.7165 14.4576 26.494 14.6267 26.2327L16.2246 23.6853C16.2247 23.6851 16.2248 23.6849 16.2249 23.6848C16.782 22.7872 17.2702 22.0201 17.6892 21.3838L17.69 21.3825C18.124 20.7316 18.5276 20.1494 18.9009 19.636C19.2737 19.108 19.6467 18.6029 20.0199 18.1208L20.0216 18.1186L20.0233 18.1165C20.4118 17.6348 20.8464 17.1149 21.3269 16.5568C22.0565 15.7031 22.7183 14.9788 23.312 14.3851C23.9051 13.792 24.4994 13.26 25.095 12.7895C25.2954 12.6215 25.4823 12.488 25.6546 12.3952C25.8246 12.3037 26.0014 12.2402 26.1749 12.2402C26.2953 12.2402 26.4344 12.275 26.5381 12.3903C26.6368 12.5 26.6617 12.6369 26.6617 12.7503C26.6617 12.8797 26.6239 13.0116 26.5697 13.1381L26.5665 13.1456L26.5628 13.1529C26.5058 13.2669 26.3942 13.4364 26.2416 13.6501C26.1523 13.7843 26.0474 13.9491 25.9267 14.1452C25.8186 14.3305 25.6876 14.554 25.5337 14.8156L25.5331 14.8166L25.5324 14.8176C25.2092 15.3564 24.917 15.8562 24.6557 16.3172C24.4102 16.7623 24.1959 17.168 24.0126 17.5346C23.8446 17.8707 23.6296 18.3235 23.3674 18.8941L23.3668 18.8955L23.3662 18.8968C23.1044 19.4511 22.7961 20.1217 22.4411 20.9088C22.0704 21.7429 21.7693 22.4224 21.5377 22.9474L21.537 22.9488L21.5364 22.9502C21.3061 23.457 21.1363 23.8275 21.0274 24.0609C20.566 25.1531 20.198 26.0888 19.9226 26.8689L19.9221 26.8705C19.784 27.2539 19.6822 27.5638 19.6151 27.8022C19.5456 28.0493 19.5212 28.1941 19.5212 28.26C19.5212 28.3039 19.5257 28.3326 19.5304 28.3496C19.5306 28.3506 19.5309 28.3515 19.5311 28.3523C19.5347 28.3526 19.5391 28.3528 19.5444 28.3528C19.5959 28.3528 19.7218 28.3172 19.9448 28.1688C20.1735 28.0114 20.4303 27.7921 20.7155 27.5069C21.0177 27.2047 21.3365 26.8558 21.6719 26.4595C22.0074 26.0476 22.3512 25.5968 22.7033 25.107L22.7063 25.1027L23.0397 24.6741L23.6594 25.1389L23.5047 25.3596C22.6646 26.5574 21.8874 27.4937 21.1728 28.1609C20.8239 28.4938 20.4977 28.7524 20.1946 28.9292C19.8932 29.1051 19.5965 29.2106 19.3125 29.2106C18.7586 29.2106 18.317 28.9053 17.9879 28.3857L17.9861 28.3829L17.9844 28.38C17.6738 27.8624 17.5274 27.2299 17.5274 26.4981C17.5274 24.9875 18.1822 23.1432 19.4431 20.9795L19.4439 20.9782C20.4805 19.2209 21.9534 17.1937 23.8591 14.8977C23.2371 15.4964 22.5884 16.1923 21.9131 16.9868C20.3635 18.8279 18.6868 21.2037 16.883 24.1175L16.881 24.1207L16.8789 24.1239C16.5251 24.6624 16.2176 25.1389 15.9565 25.5535C15.7092 25.9709 15.492 26.3277 15.3052 26.6235L15.3033 26.6264L15.3014 26.6292C14.897 27.2359 14.4998 27.7967 14.1098 28.3116C14.0083 28.4468 13.897 28.5676 13.7755 28.6728C13.6794 28.7685 13.5762 28.8636 13.4659 28.9581L13.4509 28.971L13.4342 28.9816C13.2895 29.0737 13.1327 29.1554 12.9805 29.1799L12.8787 29.2919L12.902 29.1873C12.8982 29.1873 12.8945 29.1874 12.8907 29.1874C12.462 29.1874 12.1592 28.8565 11.9464 28.4308L11.9435 28.4252L11.941 28.4194C11.7359 27.9579 11.6388 27.415 11.6388 26.7995C11.6388 26.0717 11.7681 25.2722 12.0208 24.4034L12.0215 24.4012L12.0221 24.399C12.29 23.5322 12.6593 22.6294 13.1287 21.6906L13.1296 21.6888L13.1305 21.6871C13.5818 20.8157 14.11 19.8758 14.715 18.8675C15.3205 17.8428 15.9189 16.9024 16.5103 16.0465L16.5115 16.0447L16.5128 16.0429C16.5819 15.9462 16.7259 15.7433 16.9452 15.4339C16.5731 15.8289 16.1968 16.2535 15.8165 16.7078L15.8155 16.709L15.8144 16.7102C15.2636 17.3528 14.673 18.1044 14.0425 18.9655L14.0418 18.9665L14.0411 18.9674C13.4099 19.8141 12.6777 20.8391 11.8443 22.0429L11.8439 22.0436C11.2405 22.91 10.7214 23.6384 10.2867 24.2283C9.86748 24.8028 9.48585 25.3013 9.14199 25.7233L9.14036 25.7253L9.1387 25.7273C8.79625 26.132 8.4836 26.4838 8.20094 26.7822C7.91619 27.0827 7.60828 27.3748 7.27738 27.6586C6.7309 28.1405 6.13433 28.5196 5.48806 28.7943L5.48645 28.795L5.48484 28.7956C4.85039 29.0559 4.20412 29.1874 3.54774 29.1874C2.64265 29.1874 1.88339 28.9308 1.29697 28.3961C0.70828 27.8593 0.417969 27.1561 0.417969 26.3126C0.417969 25.9612 0.468239 25.6237 0.569983 25.3015L0.571957 25.2953L0.574223 25.2891C0.690525 24.9734 0.842041 24.6933 1.03097 24.452C1.21991 24.1953 1.44032 23.9905 1.69414 23.8455L1.69766 23.8435L1.70125 23.8415C1.97078 23.6978 2.25505 23.6233 2.55085 23.6233C2.96161 23.6233 3.31923 23.7665 3.60536 24.0526C3.88878 24.336 4.0346 24.6847 4.0346 25.0839C4.0346 25.4351 3.90597 25.7583 3.67093 26.0476L3.66814 26.051L3.66524 26.0543C3.42927 26.3266 3.1398 26.5071 2.80039 26.5834L2.05639 26.7694L2.05081 26.7705C1.86756 26.8084 1.76247 26.8742 1.70187 26.9453C1.64278 27.0145 1.60033 27.1189 1.60033 27.2863C1.60033 27.5651 1.74113 27.818 2.11565 28.0454C2.4942 28.2753 2.98175 28.3992 3.59411 28.3992C4.10823 28.3992 4.63491 28.2851 5.17609 28.0511L5.17732 28.0505L5.17855 28.05C5.73331 27.8164 6.23779 27.488 6.69276 27.0631C6.93496 26.8208 7.18534 26.5552 7.4439 26.2662L7.44654 26.2633L7.44927 26.2604C7.71972 25.9749 8.01518 25.6267 8.33579 25.2145L8.33772 25.212L8.33971 25.2096C8.67706 24.7955 9.06893 24.2962 9.51551 23.711C9.96343 23.1086 10.5038 22.3829 11.1367 21.5339C11.8476 20.5604 12.3971 19.8173 12.7849 19.3055L12.7856 19.3045C13.1889 18.7771 13.425 18.4648 13.4989 18.3613L13.5008 18.3586L13.5027 18.356C13.9689 17.7346 14.4276 17.1514 14.8789 16.6067L14.8804 16.6049L14.8819 16.6032C15.3471 16.0604 15.8048 15.5407 16.2548 15.0441L16.2556 15.0432C16.7536 14.4986 17.2367 13.9998 17.705 13.5471Z" fill="white"/>
<path d="M41.2556 21.9346C40.5189 24.1446 39.4753 25.8404 38.1247 27.0222C36.7742 28.2039 35.1934 28.7948 33.3824 28.7948C32.876 28.7948 32.4079 28.7257 31.9781 28.5876C31.5638 28.4495 31.1954 28.2576 30.8731 28.0121C30.5662 27.7512 30.3283 27.4519 30.1595 27.1143C29.9907 26.7766 29.9062 26.4006 29.9062 25.9862C29.9062 25.6793 29.9523 25.3877 30.0444 25.1114C30.1518 24.8352 30.2823 24.5973 30.4357 24.3978C30.6046 24.1829 30.7964 24.0141 31.0113 23.8913C31.2415 23.7686 31.487 23.7072 31.7479 23.7072C32.1009 23.7072 32.3925 23.8299 32.6227 24.0755C32.8683 24.3057 32.9911 24.5973 32.9911 24.9503C32.9911 25.2265 32.9066 25.4798 32.7378 25.71C32.5844 25.9249 32.3772 26.063 32.1163 26.1244L31.3105 26.3316C31.1417 26.3622 30.9959 26.4543 30.8731 26.6078C30.7657 26.7613 30.712 26.9301 30.712 27.1143C30.712 27.2984 30.7734 27.4749 30.8962 27.6437C31.0189 27.8126 31.1801 27.966 31.3796 28.1042C31.5945 28.2269 31.84 28.3267 32.1163 28.4034C32.3925 28.4802 32.6841 28.5185 32.9911 28.5185C33.8505 28.5185 34.6179 28.2269 35.2932 27.6437C35.508 27.4596 35.6999 27.2677 35.8687 27.0682C36.0375 26.8687 36.214 26.6078 36.3982 26.2855C36.5977 25.9632 36.8125 25.5642 37.0427 25.0884C37.273 24.5973 37.5569 23.9681 37.8945 23.2007L38.2168 22.5101H37.9175C37.3343 22.5101 36.7818 22.4026 36.26 22.1878C35.7536 21.9576 35.3085 21.6506 34.9248 21.2669C34.5411 20.8833 34.2342 20.4382 34.004 19.9317C33.7891 19.4099 33.6817 18.8497 33.6817 18.2512C33.6817 17.4838 33.9042 16.7395 34.3493 16.0182C34.7944 15.2815 35.4313 14.6062 36.26 13.9923C36.9814 13.4705 37.741 13.0715 38.5391 12.7952C39.3525 12.519 40.1506 12.3809 40.9333 12.3809C41.2402 12.3809 41.4935 12.3962 41.693 12.4269C41.9078 12.4576 42.1918 12.519 42.5448 12.6111L42.4987 12.8183C42.1457 12.7415 41.8618 12.6878 41.6469 12.6571C41.4474 12.6264 41.2172 12.6111 40.9563 12.6111C40.1429 12.6111 39.3602 12.7952 38.6082 13.1636C37.8562 13.5319 37.1962 14.0307 36.6284 14.6599C36.0605 15.2892 35.6078 16.0182 35.2701 16.8469C34.9325 17.6603 34.7637 18.5121 34.7637 19.4022C34.7637 20.2924 35.0246 20.9984 35.5464 21.5202C36.0835 22.0266 36.8125 22.2799 37.7334 22.2799C37.8101 22.2799 37.8945 22.2799 37.9866 22.2799C38.0787 22.2645 38.1938 22.2492 38.3319 22.2338C39.7285 19.0109 41.1098 16.563 42.4757 14.8901C43.8569 13.2173 45.1691 12.3809 46.4123 12.3809C46.9034 12.3809 47.3101 12.5727 47.6324 12.9564C47.97 13.3247 48.1388 13.7775 48.1388 14.3146C48.1388 14.8978 47.9547 15.5347 47.5863 16.2254C47.218 16.916 46.7192 17.6143 46.09 18.3203C45.4607 19.0109 44.7241 19.6708 43.88 20.3001C43.0512 20.9293 42.1764 21.4741 41.2556 21.9346ZM41.3246 21.6583C42.1074 21.2746 42.8594 20.7605 43.5807 20.1159C44.3174 19.4713 44.962 18.7807 45.5145 18.044C46.0823 17.292 46.5351 16.5323 46.8727 15.7649C47.2257 14.9822 47.4022 14.2686 47.4022 13.624C47.4022 12.9487 47.0645 12.6111 46.3892 12.6111C45.9135 12.6111 45.4761 12.7492 45.0771 13.0254C44.678 13.3017 44.2943 13.7544 43.926 14.3837C43.5577 15.0129 43.1817 15.8417 42.798 16.8699C42.4296 17.8982 42.0306 19.1644 41.6009 20.6684C41.5702 20.7758 41.5318 20.914 41.4858 21.0828C41.4397 21.2516 41.386 21.4434 41.3246 21.6583Z" fill="white"/>
<path fill-rule="evenodd" clip-rule="evenodd" d="M41.6644 21.4819C41.5521 21.5431 41.4391 21.6015 41.3255 21.6572C41.3335 21.6291 41.3414 21.6013 41.3492 21.574C41.3773 21.4751 41.4038 21.3813 41.4284 21.2927C41.449 21.2188 41.4684 21.1484 41.4866 21.0817C41.5327 20.9129 41.5711 20.7747 41.6018 20.6673C42.0315 19.1633 42.4305 17.8971 42.7988 16.8688C43.1825 15.8406 43.5585 15.0118 43.9269 14.3826C44.2952 13.7533 44.6789 13.3006 45.0779 13.0244C45.1297 12.9885 45.182 12.955 45.2351 12.9238C45.591 12.7146 45.976 12.61 46.3901 12.61C46.3978 12.61 46.4055 12.61 46.4131 12.6101C46.7746 12.6143 47.0371 12.7175 47.2006 12.9197C47.3355 13.0866 47.403 13.321 47.403 13.6229C47.403 14.2675 47.2265 14.9811 46.8735 15.7638C46.5359 16.5312 46.0832 17.2909 45.5153 18.0429C44.9628 18.7796 44.3182 19.4702 43.5816 20.1148C43.4258 20.254 43.2686 20.3871 43.1101 20.5141C42.6407 20.8899 42.1588 21.2125 41.6644 21.4819ZM41.7692 21.1032C42.3264 20.7769 42.8688 20.3787 43.3962 19.9074L43.3973 19.9064L43.3984 19.9054C44.1214 19.2728 44.7526 18.5962 45.2928 17.876L45.2933 17.8753C45.8497 17.1384 46.2909 16.3972 46.6189 15.6518L46.6194 15.6506L46.6199 15.6495C46.9618 14.8914 47.1248 14.2173 47.1248 13.6229C47.1248 13.3281 47.0513 13.1582 46.9531 13.0599C46.8548 12.9617 46.6849 12.8882 46.3901 12.8882C45.9721 12.8882 45.5898 13.0084 45.2363 13.2531C44.8831 13.4976 44.5242 13.9129 44.167 14.5231C43.8099 15.1332 43.4405 15.9452 43.0601 16.9644C42.6947 17.9848 42.2977 19.2441 41.8692 20.7437C41.8421 20.8386 41.8088 20.9583 41.7692 21.1032ZM43.2763 20.7374C42.6802 21.1498 42.0615 21.5208 41.4202 21.8504C41.3658 21.8784 41.3112 21.9061 41.2564 21.9335C41.2474 21.9604 41.2384 21.9874 41.2293 22.0142C40.4942 24.1848 39.4597 25.8538 38.1256 27.0211C36.775 28.2028 35.1943 28.7937 33.3833 28.7937C33.3202 28.7937 33.2577 28.7926 33.1957 28.7905C33.1271 28.7881 33.0591 28.7844 32.9919 28.7794C32.6635 28.7549 32.3525 28.6988 32.0591 28.6113C32.0322 28.6033 32.0055 28.595 31.979 28.5865C31.7294 28.5033 31.4965 28.4006 31.2803 28.2784C31.2752 28.2755 31.2701 28.2727 31.265 28.2698C31.1279 28.1914 30.9976 28.1051 30.874 28.011C30.8228 27.9675 30.7735 27.9229 30.7262 27.8773C30.4896 27.6492 30.301 27.3945 30.1603 27.1132C29.9915 26.7755 29.9071 26.3995 29.9071 25.9851C29.9071 25.6782 29.9532 25.3866 30.0452 25.1103C30.1527 24.8341 30.2831 24.5962 30.4366 24.3967C30.6054 24.1818 30.7973 24.013 31.0121 23.8902C31.2423 23.7675 31.4879 23.7061 31.7488 23.7061C32.1018 23.7061 32.3934 23.8288 32.6236 24.0744C32.8691 24.3046 32.9919 24.5962 32.9919 24.9492C32.9919 25.2255 32.9075 25.4787 32.7387 25.7089C32.5852 25.9238 32.378 26.0619 32.1171 26.1233L31.3114 26.3305C31.1426 26.3612 30.9968 26.4532 30.874 26.6067C30.7666 26.7602 30.7128 26.929 30.7128 27.1132C30.7128 27.2973 30.7742 27.4738 30.897 27.6427C30.9085 27.6584 30.9203 27.6741 30.9324 27.6896C30.9632 27.7288 30.9961 27.7672 31.0311 27.8048C31.0343 27.8082 31.0374 27.8115 31.0406 27.8149C31.1378 27.9174 31.251 28.0135 31.3804 28.1031C31.5764 28.215 31.7979 28.3079 32.0449 28.3815C32.0456 28.3818 32.0464 28.382 32.0471 28.3822C32.0702 28.3891 32.0936 28.3958 32.1171 28.4023C32.3934 28.4791 32.685 28.5174 32.9919 28.5174C33.0596 28.5174 33.1268 28.5156 33.1934 28.512C33.9717 28.4697 34.6719 28.1799 35.294 27.6427C35.5089 27.4585 35.7007 27.2666 35.8695 27.0671C36.0384 26.8676 36.2148 26.6067 36.399 26.2844C36.5985 25.9621 36.8134 25.5631 37.0436 25.0873C37.2738 24.5962 37.5577 23.967 37.8954 23.1996L38.2177 22.509H37.9184C37.9158 22.509 37.9132 22.509 37.9107 22.509C37.8515 22.5089 37.7927 22.5077 37.7342 22.5054C37.2186 22.485 36.7275 22.3788 36.2609 22.1867C35.9504 22.0455 35.663 21.8756 35.3986 21.6767C35.3969 21.6754 35.3952 21.6742 35.3935 21.6729C35.294 21.5978 35.1978 21.5187 35.1049 21.4355C35.0438 21.3807 34.984 21.3242 34.9257 21.2658C34.542 20.8822 34.235 20.4371 34.0048 19.9306C33.79 19.4088 33.6825 18.8487 33.6825 18.2501C33.6825 17.4827 33.9051 16.7384 34.3502 16.0171C34.7952 15.2804 35.4321 14.6051 36.2609 13.9912C36.9822 13.4694 37.7419 13.0704 38.54 12.7941C38.8454 12.6904 39.1487 12.6062 39.4498 12.5414C39.9506 12.4336 40.4453 12.3798 40.9341 12.3798C40.9419 12.3798 40.9495 12.3798 40.9572 12.3798C41.2473 12.3805 41.4885 12.3952 41.681 12.4239C41.6818 12.424 41.6826 12.4241 41.6835 12.4242C41.6869 12.4248 41.6904 12.4253 41.6938 12.4258C41.9085 12.4565 42.1921 12.5178 42.5447 12.6097C42.545 12.6098 42.5453 12.6099 42.5456 12.61L42.4996 12.8172C42.4996 12.8172 42.4996 12.8172 42.4996 12.8172C42.497 12.8166 42.4945 12.8161 42.492 12.8155C42.1495 12.7412 41.8724 12.6886 41.6607 12.6579C41.6599 12.6578 41.659 12.6576 41.6582 12.6575C41.6547 12.657 41.6512 12.6565 41.6478 12.656C41.4483 12.6253 41.2181 12.61 40.9572 12.61C40.9495 12.61 40.9418 12.61 40.9341 12.61C40.451 12.6121 39.9787 12.6792 39.5172 12.8114C39.2097 12.8995 38.9069 13.0166 38.609 13.1625C37.857 13.5308 37.1971 14.0296 36.6292 14.6588C36.0614 15.2881 35.6086 16.0171 35.271 16.8458C34.9333 17.6592 34.7645 18.511 34.7645 19.4012C34.7645 20.1446 34.9465 20.7595 35.3105 21.246C35.3823 21.342 35.4612 21.4331 35.5472 21.5191C35.7734 21.7323 36.0336 21.9007 36.3278 22.0242C36.3298 22.025 36.3317 22.0258 36.3337 22.0266C36.7368 22.1947 37.2037 22.2788 37.7342 22.2788H37.9875C38.0527 22.2679 38.1294 22.257 38.2177 22.2462C38.2541 22.2417 38.2924 22.2372 38.3328 22.2327C38.3331 22.2321 38.3333 22.2314 38.3336 22.2308C39.7299 19.0088 41.1109 16.5616 42.4765 14.889C43.3841 13.7899 44.2618 13.0519 45.1097 12.6749C45.5443 12.4817 45.9711 12.3833 46.3901 12.3799C46.3978 12.3798 46.4055 12.3798 46.4131 12.3798C46.7908 12.3798 47.1185 12.4932 47.3964 12.7201C47.4798 12.7883 47.5588 12.8666 47.6332 12.9553C47.9709 13.3236 48.1397 13.7764 48.1397 14.3135C48.1397 14.8967 47.9555 15.5336 47.5872 16.2243C47.2189 16.9149 46.7201 17.6132 46.0908 18.3192C45.4616 19.0098 44.7249 19.6697 43.8808 20.299C43.682 20.45 43.4804 20.5961 43.2763 20.7374ZM44.0481 20.5213C43.2369 21.1371 42.3821 21.6735 41.4836 22.1305C40.7378 24.3212 39.6834 26.0277 38.3088 27.2305C36.907 28.457 35.261 29.0719 33.3833 29.0719C32.8514 29.0719 32.3542 28.9993 31.8939 28.8514L31.8924 28.8509L31.891 28.8504C31.4499 28.7034 31.0539 28.4978 30.7054 28.2323L30.6995 28.2278L30.6938 28.223C30.3603 27.9394 30.0982 27.6109 29.9115 27.2376C29.7215 26.8577 29.6289 26.4384 29.6289 25.9851C29.6289 25.6499 29.6793 25.3285 29.7813 25.0224L29.7835 25.0159L29.7859 25.0095C29.9013 24.7129 30.0439 24.4509 30.2161 24.2271L30.217 24.2259L30.2178 24.2248C30.4065 23.9847 30.625 23.791 30.8741 23.6487L30.8776 23.6467L30.8812 23.6448C31.1517 23.5005 31.4422 23.4279 31.7488 23.4279C32.1714 23.4279 32.5357 23.5773 32.8204 23.8776C33.1207 24.1623 33.2701 24.5266 33.2701 24.9492C33.2701 25.2861 33.1659 25.5961 32.9641 25.872C32.7714 26.1411 32.5073 26.3166 32.1838 26.3934L31.371 26.6024L31.3612 26.6042C31.2699 26.6208 31.1824 26.6692 31.0969 26.7736C31.025 26.8789 30.991 26.99 30.991 27.1132C30.991 27.2309 31.029 27.3511 31.122 27.479C31.2218 27.6162 31.3558 27.7463 31.5289 27.8675C31.7186 27.9745 31.9388 28.0641 32.1916 28.1343C32.4419 28.2038 32.7084 28.2392 32.9919 28.2392C33.7819 28.2392 34.4853 27.9735 35.1122 27.4321L35.113 27.4314C35.3175 27.2561 35.4987 27.0747 35.6572 26.8874C35.8115 26.705 35.9785 26.4595 36.1575 26.1464L36.1599 26.1421L36.1625 26.138C36.3552 25.8267 36.5652 25.4372 36.7924 24.9677C37.0212 24.4796 37.3039 23.853 37.6407 23.0876L37.642 23.0848L37.7817 22.7853C37.2132 22.7697 36.6703 22.6562 36.155 22.4439L36.1503 22.442L36.1458 22.44C35.6097 22.1963 35.1368 21.8704 34.729 21.4626C34.3211 21.0547 33.9952 20.5818 33.7516 20.0458L33.7495 20.0412L33.7476 20.0366C33.5181 19.4791 33.4043 18.8828 33.4043 18.2501C33.4043 17.4263 33.6439 16.6323 34.1127 15.8721C34.5798 15.0993 35.2435 14.3987 36.0953 13.7677L36.0966 13.7667L36.0978 13.7658C36.84 13.2289 37.6238 12.8169 38.449 12.5312L38.4505 12.5307C39.2899 12.2456 40.1182 12.1016 40.9341 12.1016C41.2481 12.1016 41.5162 12.1171 41.7346 12.1506C41.9643 12.1835 42.2593 12.2478 42.6158 12.3408L42.8754 12.4085L42.7111 13.1478L42.4405 13.089C42.0904 13.0129 41.8138 12.9608 41.6084 12.9314L41.607 12.9312L41.6055 12.931C41.4233 12.903 41.2078 12.8882 40.9572 12.8882C40.1874 12.8882 39.4465 13.0621 38.7314 13.4123C38.0116 13.7649 37.3802 14.242 36.8358 14.8452C36.2907 15.4492 35.8548 16.1503 35.5286 16.9508L35.5279 16.9525C35.2045 17.7317 35.0427 18.5472 35.0427 19.4012C35.0427 20.232 35.2838 20.8606 35.7411 21.3195C36.2144 21.7641 36.8678 22.0006 37.7342 22.0006H37.9649C38.0179 21.9921 38.0768 21.9837 38.1413 21.9754C39.5211 18.8135 40.8931 16.3884 42.2611 14.7131L42.262 14.7119C43.6585 13.0206 45.042 12.1016 46.4131 12.1016C46.9864 12.1016 47.469 12.3296 47.8424 12.7718C48.2281 13.1947 48.4179 13.7146 48.4179 14.3135C48.4179 14.9553 48.2155 15.6375 47.8327 16.3552C47.452 17.0689 46.9395 17.7851 46.2985 18.5043L46.2975 18.5054L46.2965 18.5065C45.6541 19.2115 44.9042 19.883 44.0481 20.5213Z" fill="white"/>
</g>
<path d="M80.3052 12.566H90.0072V22.268H80.3052V12.566ZM82.5492 30.54V23.896H85.6292V28.098H96.3652V30.54H82.5492ZM83.3412 19.848H86.9932V15.008H83.3412V19.848ZM92.7792 25.15V11.07H95.8812V25.15H92.7792ZM109.054 12.06H112.2V13.644C112.2 16.24 113.322 18.682 116.534 19.694L114.95 22.092C112.904 21.388 111.518 20.112 110.704 18.462C109.802 20.398 108.262 21.938 105.93 22.708L104.324 20.222C107.778 19.122 109.054 16.438 109.054 13.776V12.06ZM107.58 27.02C107.58 24.6 110.22 23.148 114.444 23.148C118.668 23.148 121.286 24.6 121.286 27.02C121.286 29.506 118.668 30.936 114.444 30.936C110.22 30.936 107.58 29.506 107.58 27.02ZM110.682 27.02C110.682 28.076 111.936 28.582 114.444 28.582C116.93 28.582 118.206 28.076 118.206 27.02C118.206 25.986 116.93 25.524 114.444 25.524C111.936 25.524 110.682 25.986 110.682 27.02ZM114.642 17.032V14.524H118.118V11.048H121.22V22.664H118.118V17.032H114.642ZM140.552 15.778H143.346V11.048H146.448V22.84H143.346V18.264H140.552V15.778ZM129.618 20.464C132.764 19.408 134.084 16.966 134.216 14.634H130.432V12.214H141.124V14.634H137.406C137.538 16.768 138.792 18.968 141.806 19.98L140.288 22.4C138.154 21.718 136.702 20.332 135.866 18.638C135.008 20.574 133.468 22.114 131.18 22.884L129.618 20.464ZM132.808 27.086C132.808 24.688 135.448 23.236 139.672 23.236C143.896 23.236 146.514 24.688 146.514 27.086C146.514 29.55 143.896 30.958 139.672 30.958C135.448 30.958 132.808 29.55 132.808 27.086ZM135.91 27.086C135.91 28.142 137.164 28.626 139.672 28.626C142.158 28.626 143.434 28.142 143.434 27.086C143.434 26.052 142.158 25.568 139.672 25.568C137.164 25.568 135.91 26.052 135.91 27.086ZM155.991 12.016H165.693V20.508H155.991V12.016ZM158.213 24.204V21.872H171.567V27.394H161.271V28.428H172.029V30.804H158.257V25.194H168.509V24.204H158.213ZM159.027 18.066H162.679V14.414H159.027V18.066ZM168.465 21.014V11.048H171.567V21.014H168.465Z" fill="white"/>
<defs>
<clipPath id="clip0_1715_96">
<rect width="58.7007" height="40" fill="white"/>
</clipPath>
</defs>
</svg>
